<?xml version="1.0" encoding="utf-8"?>
<!-- Generator: Adobe Illustrator 27.5.0, SVG Export Plug-In . SVG Version: 6.00 Build 0)  -->
<svg version="1.1" xmlns="http://www.w3.org/2000/svg" xmlns:xlink="http://www.w3.org/1999/xlink" x="0px" y="0px"
	 viewBox="0 0 500 500" style="enable-background:new 0 0 500 500;" xml:space="preserve">
<g id="Background_Complete">
	<rect x="416.779" y="398.494" style="fill:#EBEBEB;" width="33.122" height="0.25"/>
	<rect x="322.527" y="401.208" style="fill:#EBEBEB;" width="8.693" height="0.25"/>
	<rect x="396.586" y="389.208" style="fill:#EBEBEB;" width="19.192" height="0.25"/>
	<rect x="52.459" y="390.888" style="fill:#EBEBEB;" width="43.193" height="0.25"/>
	<rect x="104.556" y="390.888" style="fill:#EBEBEB;" width="6.333" height="0.25"/>
	<rect x="131.471" y="395.111" style="fill:#EBEBEB;" width="93.676" height="0.25"/>
	<g>
		<path style="fill:#EBEBEB;" d="M238.401,337.8H45.302c-3.147,0-5.708-2.561-5.708-5.708V60.66c0-3.147,2.561-5.708,5.708-5.708
			h193.099c3.146,0,5.707,2.561,5.707,5.708v271.432C244.108,335.239,241.547,337.8,238.401,337.8z M45.302,55.203
			c-3.01,0-5.458,2.448-5.458,5.458v271.432c0,3.01,2.448,5.458,5.458,5.458h193.099c3.009,0,5.457-2.448,5.457-5.458V60.66
			c0-3.009-2.448-5.458-5.457-5.458H45.302z"/>
		<path style="fill:#EBEBEB;" d="M454.698,337.8H261.599c-3.146,0-5.707-2.561-5.707-5.708V60.66c0-3.147,2.561-5.708,5.707-5.708
			h193.099c3.148,0,5.708,2.561,5.708,5.708v271.432C460.406,335.239,457.845,337.8,454.698,337.8z M261.599,55.203
			c-3.009,0-5.457,2.448-5.457,5.458v271.432c0,3.01,2.448,5.458,5.457,5.458h193.099c3.01,0,5.458-2.448,5.458-5.458V60.66
			c0-3.009-2.448-5.458-5.458-5.458H261.599z"/>
	</g>
	<rect y="382.398" style="fill:#EBEBEB;" width="500" height="0.25"/>
	<g>
		<path style="fill:#F0F0F0;" d="M191.642,138.283l53.999,53.999c-1.956,5.6-0.697,12.074,3.778,16.549
			c2.434,2.434,5.974,3.4,9.375,3.684c1.13,0.094,1.756-1.286,0.954-2.088l-6.36-6.36l3.297-10.524l10.524-3.297l6.36,6.36
			c0.802,0.802,2.182,0.176,2.088-0.954c-0.284-3.401-1.25-6.94-3.684-9.375c-4.475-4.475-10.949-5.735-16.549-3.778l-53.999-53.999
			c1.956-5.6,0.697-12.073-3.778-16.549c-2.434-2.434-5.974-3.4-9.375-3.684c-1.13-0.094-1.756,1.286-0.954,2.088l6.36,6.36
			l-3.297,10.524l-10.524,3.297l-6.36-6.36c-0.802-0.802-2.182-0.176-2.088,0.954c0.284,3.401,1.249,6.941,3.684,9.375
			C179.568,138.98,186.042,140.239,191.642,138.283z"/>
		<path style="fill:#FAFAFA;" d="M198.285,137.317l2.174-2.174c0.86-0.86,2.254-0.86,3.114,0l45.75,45.75
			c0.86,0.86,0.86,2.254,0,3.113l-2.174,2.174c-0.86,0.86-2.254,0.86-3.114,0l-45.75-45.75
			C197.425,139.571,197.425,138.177,198.285,137.317z"/>
	</g>
	<g>
		<path style="fill:#EBEBEB;" d="M70.355,276.814l30.807-19.593v-30.793l-34.332,42.936c-0.379,0.474-0.586,1.064-0.586,1.671v3.52
			C66.243,276.668,68.574,277.947,70.355,276.814z"/>
		<path style="fill:#EBEBEB;" d="M102.347,226.429v30.793l30.806,19.593c1.781,1.133,4.111-0.147,4.111-2.258v-3.52
			c0-0.607-0.207-1.197-0.586-1.671L102.347,226.429z"/>
		<path style="fill:#E0E0E0;" d="M86.693,266.423l14.468-9.202v-30.793l-16.206,20.267
			C85.491,253.191,86.071,259.819,86.693,266.423z"/>
		<path style="fill:#E0E0E0;" d="M118.552,246.695l-16.205-20.267v30.793l14.468,9.201
			C117.436,259.819,118.017,253.19,118.552,246.695z"/>
		<path style="fill:#F5F5F5;" d="M101.754,133.865c-9.464,0-17.136,37.751-17.136,50.897c0,7.169,2.282,46.712,5.891,81.19
			c3.096,0.364,6.556,0.574,10.226,0.574c4.512,0,8.713-0.314,12.293-0.848c3.593-34.414,5.863-73.766,5.863-80.916
			C118.891,171.616,111.218,133.865,101.754,133.865z"/>
		<path style="fill:#E6E6E6;" d="M101.754,164.419c4.934,0,9.751-0.203,14.408-0.587c-3.05-14.557-8.362-29.966-14.408-29.966
			c-6.047,0-11.358,15.409-14.408,29.966C92.003,164.215,96.82,164.419,101.754,164.419z"/>
		<g>
			<path style="fill:#EBEBEB;" d="M101.754,196.179c-6.885,0-12.487-5.601-12.487-12.486s5.601-12.486,12.487-12.486
				c6.885,0,12.486,5.601,12.486,12.486S108.639,196.179,101.754,196.179z M101.754,173.446c-5.65,0-10.247,4.597-10.247,10.247
				c0,5.65,4.597,10.247,10.247,10.247c5.65,0,10.246-4.597,10.246-10.247C112.001,178.043,107.404,173.446,101.754,173.446z"/>
		</g>
		<circle style="fill:#EBEBEB;" cx="101.754" cy="183.693" r="8.037"/>
		<g>
			<path style="fill:#E0E0E0;" d="M106.359,177.111l-6.686,14.337c0.665,0.178,1.36,0.282,2.081,0.282
				c0.391,0,0.772-0.037,1.148-0.091l5.677-12.175C108.004,178.537,107.25,177.736,106.359,177.111z"/>
			<path style="fill:#E0E0E0;" d="M97.364,190.42l6.723-14.418c-0.383-0.116-0.779-0.197-1.184-0.255l-6.497,13.934
				C96.707,189.949,97.025,190.199,97.364,190.42z"/>
		</g>
		<path style="fill:#E0E0E0;" d="M102.044,279.429h-0.579c-1.335,0-2.418-1.083-2.418-2.418v-48.165
			c0-1.335,1.083-2.418,2.418-2.418h0.579c1.335,0,2.418,1.083,2.418,2.418v48.165C104.461,278.347,103.379,279.429,102.044,279.429
			z"/>
	</g>
	<path style="fill:#F0F0F0;" d="M313.841,139.207c0.123-1.41,0.142-2.795,0.079-4.155l5.445-2.884
		c-0.178-1.659-0.474-3.276-0.875-4.847l-5.939,0.098c-0.838-2.594-2.034-5.009-3.534-7.195l3.495-5.086
		c-0.991-1.263-2.074-2.45-3.241-3.551l-5.353,3.05c-2.038-1.691-4.33-3.098-6.831-4.163l0.617-5.93
		c-1.524-0.539-3.102-0.976-4.733-1.299l-3.338,5.192c-1.344-0.182-2.72-0.285-4.13-0.285c-1.41,0-2.804,0.103-4.179,0.285
		l-2.43-5.192c-1.687,0.323-3.342,0.761-4.961,1.299l-0.421,5.93c-2.687,1.065-5.225,2.472-7.559,4.163l-4.819-3.05
		c-1.36,1.102-2.65,2.288-3.862,3.551l2.605,5.086c-1.883,2.186-3.5,4.601-4.793,7.195l-5.921-0.098
		c-0.676,1.571-1.255,3.188-1.723,4.847l4.94,2.884c-0.301,1.36-0.525,2.745-0.648,4.155c-0.123,1.41-0.142,2.795-0.079,4.155
		l-5.444,2.884c0.178,1.659,0.474,3.276,0.875,4.847l5.939-0.098c0.838,2.594,2.034,5.009,3.534,7.195l-3.495,5.086
		c0.991,1.263,2.074,2.45,3.241,3.551l5.353-3.05c2.038,1.691,4.33,3.098,6.831,4.163l-0.617,5.93
		c1.524,0.539,3.102,0.976,4.733,1.299l3.338-5.192c1.344,0.182,2.72,0.285,4.13,0.285s2.804-0.103,4.179-0.285l2.43,5.192
		c1.687-0.323,3.342-0.761,4.96-1.299l0.421-5.93c2.687-1.065,5.225-2.472,7.559-4.163l4.819,3.05
		c1.36-1.102,2.65-2.288,3.862-3.551l-2.605-5.086c1.882-2.186,3.5-4.601,4.793-7.195l5.921,0.098
		c0.676-1.571,1.255-3.188,1.723-4.847l-4.94-2.884C313.493,142.002,313.717,140.617,313.841,139.207z M281.862,149.766
		c-5.831,0-10.145-4.727-9.635-10.559s5.651-10.559,11.482-10.559c5.832,0,10.145,4.727,9.635,10.559
		S287.693,149.766,281.862,149.766z"/>
	<path style="fill:#EBEBEB;" d="M373.291,113.143c0.079-0.9,0.105-1.788,0.087-2.663l7.616-4.034
		c-0.14-1.134-0.344-2.244-0.603-3.331l-8.316,0.137c-0.579-1.639-1.339-3.184-2.262-4.611l4.893-7.121
		c-0.695-0.856-1.438-1.671-2.227-2.441l-7.495,4.27c-1.336-1.047-2.802-1.942-4.378-2.665l0.864-8.304
		c-1.056-0.354-2.14-0.655-3.253-0.894l-4.67,7.263c-0.867-0.094-1.75-0.146-2.65-0.146c-0.9,0-1.792,0.052-2.675,0.146
		l-3.399-7.263c-1.155,0.239-2.292,0.54-3.409,0.894l-0.589,8.304c-1.702,0.723-3.325,1.618-4.844,2.665l-6.747-4.27
		c-0.924,0.77-1.809,1.585-2.654,2.441l3.647,7.121c-1.172,1.427-2.202,2.972-3.068,4.611l-8.292-0.137
		c-0.449,1.087-0.848,2.197-1.186,3.331l6.91,4.034c-0.171,0.875-0.3,1.763-0.379,2.663c-0.079,0.9-0.105,1.788-0.087,2.663
		l-7.616,4.034c0.139,1.134,0.344,2.244,0.603,3.331l8.316-0.137c0.579,1.639,1.339,3.184,2.262,4.611l-4.893,7.121
		c0.695,0.856,1.438,1.671,2.227,2.441l7.495-4.27c1.336,1.047,2.802,1.942,4.378,2.665l-0.864,8.304
		c1.056,0.354,2.14,0.656,3.253,0.894l4.67-7.263c0.867,0.094,1.75,0.146,2.65,0.146c0.9,0,1.792-0.052,2.676-0.146l3.399,7.263
		c1.155-0.239,2.292-0.54,3.409-0.894l0.589-8.304c1.702-0.723,3.325-1.617,4.844-2.665l6.747,4.27
		c0.923-0.77,1.81-1.585,2.654-2.441l-3.647-7.121c1.172-1.427,2.202-2.972,3.068-4.611l8.292,0.137
		c0.449-1.087,0.848-2.197,1.186-3.331l-6.91-4.034C373.083,114.931,373.212,114.043,373.291,113.143z M347.841,123.545
		c-5.745,0-9.995-4.657-9.492-10.402c0.503-5.745,5.567-10.402,11.312-10.402c5.745,0,9.995,4.657,9.492,10.402
		C358.651,118.888,353.586,123.545,347.841,123.545z"/>
	<path style="fill:#F0F0F0;" d="M429.136,200.195c0.038-0.437,0.051-0.869,0.042-1.294l3.7-1.96
		c-0.068-0.551-0.167-1.09-0.293-1.619l-4.04,0.067c-0.282-0.796-0.651-1.547-1.099-2.24l2.377-3.46
		c-0.338-0.416-0.699-0.812-1.082-1.186l-3.642,2.075c-0.649-0.509-1.362-0.944-2.127-1.295l0.42-4.035
		c-0.513-0.172-1.04-0.318-1.581-0.434l-2.269,3.529c-0.421-0.046-0.85-0.071-1.288-0.071c-0.437,0-0.871,0.025-1.3,0.071
		l-1.652-3.529c-0.561,0.116-1.113,0.262-1.657,0.434l-0.286,4.035c-0.827,0.351-1.616,0.786-2.354,1.295l-3.279-2.075
		c-0.449,0.374-0.879,0.77-1.29,1.186l1.772,3.46c-0.57,0.693-1.07,1.444-1.491,2.24l-4.029-0.067
		c-0.218,0.528-0.412,1.068-0.576,1.619l3.357,1.96c-0.083,0.425-0.146,0.857-0.184,1.294c-0.038,0.437-0.051,0.869-0.042,1.294
		l-3.7,1.96c0.068,0.551,0.167,1.09,0.293,1.619l4.04-0.067c0.282,0.796,0.651,1.547,1.099,2.24l-2.378,3.46
		c0.338,0.416,0.699,0.812,1.082,1.186l3.642-2.075c0.649,0.509,1.362,0.944,2.127,1.295l-0.42,4.035
		c0.513,0.172,1.04,0.319,1.581,0.434l2.269-3.529c0.421,0.046,0.85,0.071,1.288,0.071c0.437,0,0.871-0.025,1.3-0.071l1.652,3.529
		c0.561-0.116,1.113-0.262,1.657-0.434l0.286-4.035c0.827-0.351,1.616-0.786,2.354-1.295l3.279,2.075
		c0.449-0.374,0.879-0.77,1.29-1.186l-1.772-3.46c0.57-0.693,1.07-1.444,1.491-2.24l4.029,0.067
		c0.218-0.528,0.412-1.068,0.576-1.619l-3.357-1.96C429.035,201.064,429.098,200.633,429.136,200.195z M416.77,205.25
		c-2.791,0-4.856-2.263-4.612-5.054c0.244-2.791,2.705-5.054,5.496-5.054c2.791,0,4.856,2.263,4.612,5.054
		C422.023,202.987,419.562,205.25,416.77,205.25z"/>
	<path style="fill:#F5F5F5;" d="M419.241,151.073c0.07-0.798,0.093-1.585,0.077-2.361l6.753-3.578
		c-0.124-1.006-0.305-1.99-0.535-2.954l-7.374,0.122c-0.514-1.453-1.187-2.823-2.005-4.089l4.339-6.315
		c-0.616-0.759-1.275-1.482-1.975-2.164l-6.646,3.786c-1.184-0.929-2.485-1.722-3.882-2.363l0.766-7.364
		c-0.936-0.314-1.898-0.581-2.885-0.793l-4.141,6.44c-0.769-0.084-1.552-0.13-2.35-0.13c-0.798,0-1.59,0.046-2.373,0.13l-3.014-6.44
		c-1.024,0.212-2.032,0.479-3.023,0.793l-0.522,7.364c-1.509,0.641-2.949,1.434-4.296,2.363l-5.983-3.786
		c-0.819,0.683-1.605,1.405-2.354,2.164l3.234,6.315c-1.04,1.266-1.953,2.636-2.721,4.089l-7.353-0.122
		c-0.398,0.964-0.752,1.949-1.051,2.954l6.127,3.578c-0.152,0.776-0.266,1.563-0.336,2.361c-0.07,0.798-0.093,1.585-0.077,2.361
		l-6.753,3.578c0.124,1.006,0.305,1.99,0.535,2.954l7.374-0.122c0.514,1.453,1.187,2.823,2.005,4.089l-4.339,6.315
		c0.616,0.759,1.276,1.482,1.975,2.164l6.646-3.786c1.184,0.929,2.485,1.722,3.882,2.363l-0.766,7.364
		c0.936,0.314,1.898,0.581,2.885,0.793l4.141-6.44c0.769,0.084,1.552,0.13,2.35,0.13c0.798,0,1.589-0.046,2.373-0.13l3.014,6.44
		c1.024-0.212,2.032-0.479,3.023-0.793l0.522-7.364c1.509-0.641,2.949-1.434,4.296-2.363l5.984,3.786
		c0.819-0.683,1.605-1.405,2.354-2.164l-3.234-6.315c1.04-1.266,1.953-2.636,2.721-4.089l7.353,0.122
		c0.398-0.964,0.752-1.948,1.052-2.954l-6.127-3.578C419.056,152.658,419.171,151.871,419.241,151.073z M396.354,163.932
		c-7.102,0-12.356-5.758-11.735-12.86c0.621-7.102,6.883-12.86,13.985-12.86c7.102,0,12.356,5.758,11.735,12.86
		C409.717,158.175,403.456,163.932,396.354,163.932z"/>
	<g>
		<path style="fill:#F0F0F0;" d="M139.654,132.854l31.795-31.795c3.297,1.152,7.109,0.411,9.744-2.225
			c1.433-1.433,2.002-3.518,2.169-5.52c0.055-0.665-0.757-1.034-1.229-0.562l-3.745,3.745l-6.197-1.941l-1.941-6.197l3.745-3.745
			c0.472-0.472,0.104-1.285-0.562-1.229c-2.002,0.167-4.087,0.736-5.52,2.169c-2.635,2.635-3.377,6.447-2.225,9.744l-31.795,31.795
			c-3.297-1.152-7.109-0.41-9.744,2.225c-1.433,1.433-2.002,3.518-2.169,5.52c-0.056,0.665,0.757,1.034,1.229,0.562l3.745-3.745
			l6.197,1.941l1.941,6.197l-3.745,3.745c-0.472,0.472-0.104,1.285,0.562,1.229c2.002-0.167,4.087-0.736,5.52-2.169
			C140.064,139.963,140.806,136.151,139.654,132.854z"/>
		<path style="fill:#FAFAFA;" d="M138.445,128.302L138.445,128.302c-0.86-0.86-0.86-2.254,0-3.113l25.658-25.658
			c0.86-0.86,2.254-0.86,3.114,0l0,0c0.86,0.86,0.86,2.254,0,3.114l-25.658,25.658C140.699,129.161,139.305,129.161,138.445,128.302
			z"/>
	</g>
</g>
<g id="Background_Simple" style="display:none;">
	<g style="display:inline;">
		<path style="fill:#407BFF;" d="M179.179,93.606l215.559,68.01c32.722,10.324,49.907,46.156,37.473,78.136l-37.435,96.285
			c-13.679,35.183-56.287,48.836-87.866,28.154L111.55,236.251c-39.898-26.13-48.059-81.221-17.45-117.795l0,0
			C114.811,93.708,148.404,83.897,179.179,93.606z"/>
		<path style="opacity:0.9;fill:#FFFFFF;" d="M179.179,93.606l215.559,68.01c32.722,10.324,49.907,46.156,37.473,78.136
			l-37.435,96.285c-13.679,35.183-56.287,48.836-87.866,28.154L111.55,236.251c-39.898-26.13-48.059-81.221-17.45-117.795l0,0
			C114.811,93.708,148.404,83.897,179.179,93.606z"/>
	</g>
</g>
<g id="Shadow">
	<ellipse id="_x3C_Path_x3E__359_" style="fill:#F5F5F5;" cx="250" cy="415.693" rx="193.889" ry="11.323"/>
</g>
<g id="Device">
	<g>
		<g>
			<path style="fill:#263238;" d="M252.885,301.091l-19.097,98.244h49.002l19.097-98.244H252.885z M273.213,363.931l-2.748,14.138
				c-0.759,3.904-4.539,7.069-8.443,7.069c-3.904,0-6.454-3.165-5.695-7.069l2.748-14.138c0.759-3.904,4.539-7.069,8.443-7.069
				C271.422,356.862,273.972,360.027,273.213,363.931z"/>
			<path style="opacity:0.3;fill:#FFFFFF;" d="M252.885,301.091l-19.097,98.244h49.002l19.097-98.244H252.885z M273.213,363.931
				l-2.748,14.138c-0.759,3.904-4.539,7.069-8.443,7.069c-3.904,0-6.454-3.165-5.695-7.069l2.748-14.138
				c0.759-3.904,4.539-7.069,8.443-7.069C271.422,356.862,273.972,360.027,273.213,363.931z"/>
			<polygon style="fill:#263238;" points="233.896,399.335 229.599,399.335 248.695,301.091 252.993,301.091 			"/>
			<polygon style="opacity:0.6;fill:#FFFFFF;" points="233.896,399.335 229.599,399.335 248.695,301.091 252.993,301.091 			"/>
			<polygon style="opacity:0.2;" points="252.885,301.091 248.695,301.091 238.508,353.5 291.7,353.5 301.888,301.091 
				252.993,301.091 			"/>
			<path style="fill:#263238;" d="M267.518,356.862c-0.666,0-1.327,0.098-1.972,0.271c2.807,0.837,4.458,3.56,3.829,6.798
				l-2.748,14.138c-0.629,3.238-3.338,5.961-6.471,6.798c0.578,0.172,1.2,0.271,1.866,0.271c3.904,0,7.684-3.165,8.443-7.069
				l2.748-14.138C273.971,360.027,271.422,356.862,267.518,356.862z"/>
			<path style="opacity:0.6;fill:#FFFFFF;" d="M267.518,356.862c-0.666,0-1.327,0.098-1.972,0.271
				c2.807,0.837,4.458,3.56,3.829,6.798l-2.748,14.138c-0.629,3.238-3.338,5.961-6.471,6.798c0.578,0.172,1.2,0.271,1.866,0.271
				c3.904,0,7.684-3.165,8.443-7.069l2.748-14.138C273.971,360.027,271.422,356.862,267.518,356.862z"/>
			<g>
				<rect x="189.833" y="398.901" style="fill:#407BFF;" width="70.322" height="15.756"/>
				<rect x="189.833" y="398.901" style="opacity:0.4;fill:#FFFFFF;" width="70.322" height="15.756"/>
				<rect x="260.155" y="398.901" style="fill:#407BFF;" width="92.839" height="15.756"/>
				<rect x="260.155" y="398.901" style="opacity:0.6;fill:#FFFFFF;" width="92.839" height="15.756"/>
			</g>
			<path style="fill:#263238;" d="M144.794,347.669h247.065c4.491,0.085,8.2-3.487,8.285-7.977c0.007-0.358-0.01-0.716-0.05-1.072
				l-15.609-178.532c-0.51-5.072-4.733-8.96-9.829-9.049H127.59c-4.491-0.085-8.2,3.487-8.285,7.978
				c-0.007,0.358,0.01,0.716,0.05,1.072l15.62,178.543C135.486,343.697,139.704,347.581,144.794,347.669z"/>
			<path style="opacity:0.3;fill:#FFFFFF;" d="M144.794,347.669h247.065c4.491,0.085,8.2-3.487,8.285-7.977
				c0.007-0.358-0.01-0.716-0.05-1.072l-15.609-178.532c-0.51-5.072-4.733-8.96-9.829-9.049H127.59
				c-4.491-0.085-8.2,3.487-8.285,7.978c-0.007,0.358,0.01,0.716,0.05,1.072l15.62,178.543
				C135.486,343.697,139.704,347.581,144.794,347.669z"/>
			<path style="fill:#407BFF;" d="M398.419,319.336l1.685,19.296c0.507,4.463-2.7,8.492-7.163,8.998
				c-0.355,0.04-0.714,0.057-1.071,0.051H144.794c-5.094-0.09-9.314-3.979-9.818-9.049l-1.697-19.296H398.419z"/>
			<path style="opacity:0.6;fill:#FFFFFF;enable-background:new    ;" d="M398.419,319.336l1.685,19.296
				c0.507,4.463-2.7,8.492-7.163,8.998c-0.355,0.04-0.714,0.057-1.071,0.051H144.794c-5.094-0.09-9.314-3.979-9.818-9.049
				l-1.697-19.296H398.419z"/>
			<path style="fill:#407BFF;" d="M142,313.872h246.748c2.436,0.046,4.448-1.891,4.494-4.327c0.004-0.191-0.005-0.381-0.026-0.571
				L380.31,161.424c-0.28-2.746-2.568-4.849-5.327-4.898H128.235c-2.436-0.046-4.448,1.891-4.494,4.327
				c-0.004,0.191,0.005,0.381,0.026,0.571l12.906,147.551C136.953,311.72,139.241,313.824,142,313.872z"/>
			<path style="opacity:0.8;fill:#407BFF;enable-background:new    ;" d="M142,313.872h246.748c2.436,0.046,4.448-1.891,4.494-4.327
				c0.004-0.191-0.005-0.381-0.026-0.571L380.31,161.424c-0.28-2.746-2.568-4.849-5.327-4.898H128.235
				c-2.436-0.046-4.448,1.891-4.494,4.327c-0.004,0.191,0.005,0.381,0.026,0.571l12.906,147.551
				C136.953,311.72,139.241,313.824,142,313.872z"/>
			<path style="opacity:0.8;fill:#FFFFFF;enable-background:new    ;" d="M142,313.872h246.748c2.436,0.046,4.448-1.891,4.494-4.327
				c0.004-0.191-0.005-0.381-0.026-0.571L380.31,161.424c-0.28-2.746-2.568-4.849-5.327-4.898H128.235
				c-2.436-0.046-4.448,1.891-4.494,4.327c-0.004,0.191,0.005,0.381,0.026,0.571l12.906,147.551
				C136.953,311.72,139.241,313.824,142,313.872z"/>
			<g style="opacity:0.5;">
				<polygon style="fill:#FFFFFF;" points="319.606,313.873 342.135,313.873 308.69,156.525 286.161,156.525 				"/>
				<polygon style="fill:#FFFFFF;" points="305.339,313.873 311.105,313.873 277.659,156.525 271.893,156.525 				"/>
				<polygon style="fill:#FFFFFF;" points="221.417,313.873 225.194,313.873 191.749,156.525 187.971,156.525 				"/>
				<polygon style="fill:#FFFFFF;" points="207.149,313.873 212.915,313.873 179.47,156.525 173.704,156.525 				"/>
			</g>
			<path style="fill:#263238;" d="M122.127,151.074h5.463c-4.491-0.085-8.2,3.487-8.285,7.977c-0.007,0.358,0.01,0.716,0.05,1.072
				l15.62,178.509c0.504,5.07,4.724,8.959,9.818,9.049h-5.463c-5.094-0.09-9.314-3.979-9.818-9.049L113.893,160.1
				c-0.494-4.464,2.724-8.484,7.188-8.978C121.428,151.083,121.778,151.067,122.127,151.074z"/>
			<path style="opacity:0.6;fill:#FFFFFF;enable-background:new    ;" d="M122.127,151.074h5.463
				c-4.491-0.085-8.2,3.487-8.285,7.977c-0.007,0.358,0.01,0.716,0.05,1.072l15.62,178.509c0.504,5.07,4.724,8.959,9.818,9.049
				h-5.463c-5.094-0.09-9.314-3.979-9.818-9.049L113.893,160.1c-0.494-4.464,2.724-8.484,7.188-8.978
				C121.428,151.083,121.778,151.067,122.127,151.074z"/>
		</g>
		<g>
			<path style="fill:#407BFF;" d="M176.239,206.647h-11.138c-0.893,0-1.68-0.724-1.758-1.617l0,0
				c-0.078-0.893,0.582-1.617,1.475-1.617h11.138c0.893,0,1.68,0.724,1.758,1.617l0,0
				C177.793,205.923,177.132,206.647,176.239,206.647z"/>
			<path style="fill:#407BFF;" d="M203.73,193.713h-8.263c-0.893,0-1.68-0.724-1.758-1.617l0,0
				c-0.078-0.893,0.582-1.617,1.475-1.617h8.263c0.893,0,1.68,0.724,1.758,1.617l0,0
				C205.283,192.989,204.623,193.713,203.73,193.713z"/>
			<path style="fill:#407BFF;" d="M294.441,206.647h-11.138c-0.893,0-1.68-0.724-1.758-1.617l0,0
				c-0.078-0.893,0.582-1.617,1.475-1.617h11.138c0.893,0,1.68,0.724,1.758,1.617l0,0
				C295.995,205.923,295.334,206.647,294.441,206.647z"/>
			<path style="fill:#263238;" d="M272.166,206.647h-85.148c-0.893,0-1.68-0.724-1.758-1.617l0,0
				c-0.078-0.893,0.582-1.617,1.475-1.617h85.148c0.893,0,1.68,0.724,1.758,1.617l0,0
				C273.72,205.923,273.059,206.647,272.166,206.647z"/>
			<path style="fill:#407BFF;" d="M177.214,217.785h-11.138c-0.893,0-1.68-0.724-1.758-1.617l0,0
				c-0.078-0.893,0.582-1.617,1.475-1.617h11.138c0.893,0,1.68,0.724,1.758,1.617l0,0
				C178.767,217.061,178.107,217.785,177.214,217.785z"/>
			<path style="fill:#407BFF;" d="M210.986,217.785h-22.994c-0.893,0-1.68-0.724-1.758-1.617l0,0
				c-0.078-0.893,0.582-1.617,1.475-1.617h22.994c0.893,0,1.68,0.724,1.758,1.617l0,0
				C212.539,217.061,211.879,217.785,210.986,217.785z"/>
			<path style="fill:#407BFF;" d="M252.303,217.785h-34.131c-0.893,0-1.68-0.724-1.758-1.617l0,0
				c-0.078-0.893,0.582-1.617,1.475-1.617h34.131c0.893,0,1.68,0.724,1.758,1.617l0,0
				C253.856,217.061,253.195,217.785,252.303,217.785z"/>
			<path style="fill:#407BFF;" d="M178.188,228.922h-11.138c-0.893,0-1.68-0.724-1.758-1.617l0,0
				c-0.078-0.893,0.582-1.617,1.475-1.617h11.138c0.893,0,1.68,0.724,1.758,1.617l0,0
				C179.742,228.198,179.081,228.922,178.188,228.922z"/>
			<path style="fill:#263238;" d="M234.594,228.922h-45.628c-0.893,0-1.68-0.724-1.758-1.617l0,0
				c-0.078-0.893,0.582-1.617,1.475-1.617h45.628c0.893,0,1.68,0.724,1.758,1.617l0,0
				C236.148,228.198,235.487,228.922,234.594,228.922z"/>
			<path style="fill:#407BFF;" d="M179.163,240.06h-11.138c-0.893,0-1.68-0.724-1.758-1.617l0,0
				c-0.078-0.893,0.582-1.617,1.475-1.617h11.138c0.893,0,1.68,0.724,1.758,1.617l0,0
				C180.716,239.336,180.055,240.06,179.163,240.06z"/>
			<path style="fill:#263238;" d="M209.162,240.06h-19.221c-0.893,0-1.68-0.724-1.758-1.617l0,0
				c-0.078-0.893,0.582-1.617,1.475-1.617h19.221c0.893,0,1.68,0.724,1.758,1.617l0,0
				C210.716,239.336,210.055,240.06,209.162,240.06z"/>
			<path style="fill:#407BFF;" d="M253.169,260.539h-19.221c-0.893,0-1.68-0.724-1.758-1.617v0
				c-0.078-0.893,0.582-1.617,1.475-1.617h19.221c0.893,0,1.68,0.724,1.758,1.617v0
				C254.722,259.815,254.062,260.539,253.169,260.539z"/>
			<path style="fill:#263238;" d="M352.688,260.539h-89.729c-0.893,0-1.68-0.724-1.758-1.617v0
				c-0.078-0.893,0.582-1.617,1.475-1.617h89.729c0.893,0,1.68,0.724,1.758,1.617v0
				C354.242,259.815,353.581,260.539,352.688,260.539z"/>
			<path style="fill:#407BFF;" d="M319.891,271.676h-92.513c-0.893,0-1.68-0.724-1.758-1.617l0,0
				c-0.078-0.893,0.582-1.617,1.475-1.617h92.514c0.893,0,1.68,0.724,1.758,1.617l0,0
				C321.444,270.952,320.784,271.676,319.891,271.676z"/>
			<path style="fill:#407BFF;" d="M353.663,271.676h-22.275c-0.893,0-1.68-0.724-1.758-1.617l0,0
				c-0.078-0.893,0.582-1.617,1.475-1.617h22.275c0.893,0,1.68,0.724,1.758,1.617l0,0
				C355.216,270.952,354.556,271.676,353.663,271.676z"/>
			<path style="fill:#407BFF;" d="M303.44,282.814h-9.341c-0.893,0-1.68-0.724-1.758-1.617l0,0
				c-0.078-0.893,0.582-1.617,1.475-1.617h9.341c0.893,0,1.68,0.724,1.758,1.617l0,0C304.994,282.09,304.333,282.814,303.44,282.814
				z"/>
			<path style="fill:#263238;" d="M354.637,282.814H313.5c-0.893,0-1.68-0.724-1.758-1.617l0,0
				c-0.078-0.893,0.582-1.617,1.475-1.617h41.137c0.893,0,1.68,0.724,1.758,1.617l0,0C356.19,282.09,355.53,282.814,354.637,282.814
				z"/>
			<path style="fill:#263238;" d="M237.949,293.951h-27.305c-0.893,0-1.68-0.724-1.758-1.617l0,0
				c-0.078-0.893,0.582-1.617,1.475-1.617h27.305c0.893,0,1.68,0.724,1.758,1.617l0,0
				C239.502,293.227,238.841,293.951,237.949,293.951z"/>
			<path style="fill:#263238;" d="M355.611,293.951h-81.196c-0.893,0-1.68-0.724-1.758-1.617l0,0
				c-0.078-0.893,0.582-1.617,1.475-1.617h81.196c0.893,0,1.68,0.724,1.758,1.617l0,0
				C357.165,293.227,356.504,293.951,355.611,293.951z"/>
			<path style="fill:#263238;" d="M269.161,240.06H220.12c-0.893,0-1.68-0.724-1.758-1.617l0,0
				c-0.078-0.893,0.582-1.617,1.475-1.617h49.041c0.893,0,1.68,0.724,1.758,1.617l0,0
				C270.715,239.336,270.054,240.06,269.161,240.06z"/>
			<path style="fill:#263238;" d="M187.682,251.197h-18.682c-0.893,0-1.68-0.724-1.758-1.617l0,0
				c-0.078-0.893,0.582-1.617,1.475-1.617h18.682c0.893,0,1.68,0.724,1.758,1.617l0,0
				C189.235,250.473,188.575,251.197,187.682,251.197z"/>
			<path style="fill:#263238;" d="M205.702,251.197h-9.936c-0.893,0-1.68-0.724-1.758-1.617l0,0
				c-0.078-0.893,0.582-1.617,1.475-1.617h9.936c0.893,0,1.68,0.724,1.758,1.617l0,0
				C207.255,250.473,206.595,251.197,205.702,251.197z"/>
			<g>
				<g>
					<path style="fill:#263238;" d="M170.286,185.796l-4.927,1.866l5.249,1.847c0.406,0.143,0.701,0.517,0.738,0.936l0.001,0.015
						c0.061,0.697-0.595,1.178-1.268,0.93l-6.118-2.251c-0.584-0.215-1.005-0.757-1.058-1.361l-0.02-0.234
						c-0.053-0.605,0.273-1.146,0.82-1.361l5.724-2.251c0.63-0.248,1.37,0.234,1.431,0.931l0,0
						C170.894,185.279,170.666,185.652,170.286,185.796z"/>
					<path style="fill:#263238;" d="M177.337,179.176L177.337,179.176c0.779,0,1.393,0.77,1.199,1.505l-3.675,13.981
						c-0.119,0.454-0.521,0.757-1.001,0.757h-0.001c-0.779,0-1.393-0.77-1.199-1.505l3.676-13.981
						C176.455,179.48,176.857,179.176,177.337,179.176z"/>
					<path style="fill:#263238;" d="M188.183,187.543l0.02,0.234c0.053,0.605-0.273,1.146-0.82,1.361l-5.724,2.251
						c-0.63,0.248-1.37-0.233-1.431-0.93l-0.001-0.015c-0.037-0.419,0.193-0.793,0.574-0.936l4.925-1.847l-5.253-1.866
						c-0.405-0.144-0.698-0.517-0.735-0.935l0,0c-0.061-0.697,0.595-1.178,1.268-0.931l6.118,2.251
						C187.709,186.397,188.13,186.939,188.183,187.543z"/>
				</g>
			</g>
		</g>
	</g>
</g>
<g id="Bugs">
	<g>
		<path style="fill:#263238;" d="M378.082,270.736c0.041-0.233-0.706-0.56-1.668-0.729c-0.627-0.111-1.187-0.126-1.515-0.059
			c-0.089-0.326-0.336-0.81-0.686-1.31c-0.56-0.8-1.172-1.339-1.366-1.203c-0.194,0.136,0.103,0.895,0.663,1.695
			c0.476,0.68,0.988,1.169,1.251,1.218c0.265,0.188,0.828,0.384,1.504,0.503C377.228,271.021,378.041,270.969,378.082,270.736z"/>
		<path style="fill:#263238;" d="M373.027,273.234c0.281-0.773,0.389-1.467,0.284-1.716c0.003-0.324-0.162-0.904-0.453-1.527
			c-0.413-0.885-0.922-1.522-1.136-1.422c-0.215,0.1-0.054,0.899,0.359,1.784c0.268,0.576,0.577,1.045,0.819,1.276
			c-0.216,0.26-0.47,0.739-0.678,1.312c-0.334,0.918-0.425,1.728-0.202,1.809C372.241,274.831,372.693,274.152,373.027,273.234z"/>
		<path style="fill:#263238;" d="M379.204,266.264c-0.1-0.215-0.899-0.054-1.785,0.359c-0.576,0.268-1.045,0.577-1.276,0.819
			c-0.26-0.216-0.739-0.47-1.312-0.678c-0.918-0.334-1.728-0.425-1.809-0.202s0.598,0.674,1.516,1.008
			c0.773,0.281,1.467,0.389,1.716,0.284c0.324,0.003,0.904-0.162,1.528-0.453C378.667,266.987,379.304,266.478,379.204,266.264z"/>
		<path style="fill:#263238;" d="M362.905,255.56c0.233-0.041,0.56,0.706,0.73,1.668c0.111,0.627,0.126,1.187,0.059,1.515
			c0.326,0.089,0.81,0.336,1.31,0.686c0.8,0.56,1.339,1.172,1.203,1.366c-0.136,0.194-0.895-0.103-1.695-0.663
			c-0.68-0.476-1.169-0.988-1.218-1.251c-0.188-0.265-0.384-0.828-0.503-1.504C362.621,256.414,362.672,255.601,362.905,255.56z"/>
		<path style="fill:#263238;" d="M360.408,260.615c0.773-0.281,1.467-0.389,1.717-0.283c0.324-0.003,0.904,0.162,1.528,0.453
			c0.885,0.413,1.522,0.922,1.422,1.136c-0.1,0.215-0.899,0.054-1.785-0.359c-0.576-0.268-1.045-0.577-1.276-0.819
			c-0.26,0.216-0.739,0.47-1.312,0.678c-0.918,0.334-1.728,0.425-1.809,0.202C358.811,261.4,359.49,260.949,360.408,260.615z"/>
		<path style="fill:#263238;" d="M367.378,254.438c0.215,0.1,0.054,0.899-0.359,1.784c-0.268,0.576-0.577,1.045-0.819,1.276
			c0.216,0.26,0.47,0.74,0.678,1.312c0.334,0.918,0.425,1.728,0.202,1.809c-0.223,0.081-0.674-0.598-1.008-1.516
			c-0.281-0.773-0.389-1.467-0.284-1.716c-0.003-0.324,0.162-0.904,0.453-1.527C366.654,254.974,367.163,254.337,367.378,254.438z"
			/>
		<g>
			<path style="fill:#407BFF;" d="M372.401,259.831c-0.698,0-1.265,0.566-1.265,1.265c0,0.698,0.566,1.264,1.265,1.264
				s1.264-0.566,1.264-1.264h-1.264V259.831z"/>
			<path style="opacity:0.2;" d="M372.401,259.831c-0.698,0-1.265,0.566-1.265,1.265c0,0.698,0.566,1.264,1.265,1.264
				s1.264-0.566,1.264-1.264h-1.264V259.831z"/>
		</g>
		<g>
			<path style="fill:#407BFF;" d="M364.85,259.612c-0.901,0.444-1.763,1.051-2.533,1.822c-3.206,3.206-3.624,7.987-0.933,10.678
				s7.472,2.273,10.678-0.933c0.77-0.77,1.378-1.632,1.822-2.533L364.85,259.612z"/>
			<path style="opacity:0.3;" d="M364.85,259.612c-0.901,0.444-1.763,1.051-2.533,1.822c-3.206,3.206-3.624,7.987-0.933,10.678
				s7.472,2.273,10.678-0.933c0.77-0.77,1.378-1.632,1.822-2.533L364.85,259.612z"/>
		</g>
		<path style="fill:#407BFF;" d="M365.753,260.516l7.227,7.227c1.123-2.28,0.925-4.881-0.711-6.517
			C370.634,259.591,368.033,259.392,365.753,260.516z"/>
		<path style="opacity:0.5;" d="M365.753,260.516l7.227,7.227c1.123-2.28,0.925-4.881-0.711-6.517
			C370.634,259.591,368.033,259.392,365.753,260.516z"/>
		<path style="opacity:0.2;" d="M364.85,259.612c-0.901,0.444-1.763,1.051-2.533,1.822c-3.206,3.206-3.624,7.987-0.933,10.678
			l7.983-7.983L364.85,259.612z"/>
		<g>
			<g>
				<path style="fill:#263238;" d="M368.898,253.769c0.766,0.312,1.515,0.809,2.094,1.393c1.548,1.562,1.239,3.452-0.034,5.101
					c-0.085,0.111,0.069,0.267,0.156,0.155c1.159-1.501,1.702-3.302,0.463-4.927c-0.652-0.855-1.629-1.532-2.623-1.936
					C368.823,253.503,368.769,253.717,368.898,253.769L368.898,253.769z"/>
			</g>
			<g>
				<path style="fill:#263238;" d="M379.94,264.542c-0.404-0.993-1.081-1.971-1.936-2.623c-1.624-1.239-3.426-0.697-4.927,0.463
					c-0.112,0.086,0.045,0.241,0.155,0.156c1.644-1.269,3.543-1.587,5.101-0.034c0.584,0.582,1.081,1.327,1.393,2.094
					C379.78,264.727,379.993,264.673,379.94,264.542L379.94,264.542z"/>
			</g>
		</g>
		<g>
			<path style="fill:#407BFF;" d="M365.908,264.226c-0.506,0.506-1.326,0.506-1.832,0c-0.506-0.506-0.506-1.326,0-1.832
				c0.506-0.506,1.326-0.506,1.832,0C366.414,262.9,366.414,263.72,365.908,264.226z"/>
			<path style="fill:#407BFF;" d="M371.103,269.42c-0.506,0.506-1.326,0.506-1.832,0c-0.506-0.506-0.506-1.326,0-1.832
				c0.506-0.506,1.326-0.506,1.832,0C371.609,268.094,371.609,268.914,371.103,269.42z"/>
			<path style="fill:#407BFF;" d="M363.092,268.286c-0.506,0.506-1.326,0.506-1.832,0c-0.506-0.506-0.506-1.326,0-1.832
				c0.506-0.506,1.326-0.506,1.832,0C363.598,266.96,363.598,267.78,363.092,268.286z"/>
			<path style="fill:#407BFF;" d="M367.043,272.237c-0.506,0.506-1.326,0.506-1.832,0c-0.506-0.506-0.506-1.326,0-1.832
				c0.506-0.506,1.326-0.506,1.832,0C367.548,270.91,367.548,271.73,367.043,272.237z"/>
		</g>
		<g style="opacity:0.7;">
			<path style="fill:#FFFFFF;" d="M365.908,264.226c-0.506,0.506-1.326,0.506-1.832,0c-0.506-0.506-0.506-1.326,0-1.832
				c0.506-0.506,1.326-0.506,1.832,0C366.414,262.9,366.414,263.72,365.908,264.226z"/>
			<path style="fill:#FFFFFF;" d="M371.103,269.42c-0.506,0.506-1.326,0.506-1.832,0c-0.506-0.506-0.506-1.326,0-1.832
				c0.506-0.506,1.326-0.506,1.832,0C371.609,268.094,371.609,268.914,371.103,269.42z"/>
			<path style="fill:#FFFFFF;" d="M363.092,268.286c-0.506,0.506-1.326,0.506-1.832,0c-0.506-0.506-0.506-1.326,0-1.832
				c0.506-0.506,1.326-0.506,1.832,0C363.598,266.96,363.598,267.78,363.092,268.286z"/>
			<path style="fill:#FFFFFF;" d="M367.043,272.237c-0.506,0.506-1.326,0.506-1.832,0c-0.506-0.506-0.506-1.326,0-1.832
				c0.506-0.506,1.326-0.506,1.832,0C367.548,270.91,367.548,271.73,367.043,272.237z"/>
		</g>
	</g>
	<g>
		<path style="fill:#263238;" d="M297.396,181.398c0.041-0.233-0.706-0.56-1.668-0.729c-0.627-0.111-1.187-0.126-1.515-0.059
			c-0.089-0.326-0.336-0.81-0.686-1.31c-0.56-0.8-1.172-1.339-1.366-1.203c-0.194,0.136,0.103,0.895,0.663,1.695
			c0.476,0.68,0.988,1.169,1.251,1.218c0.265,0.188,0.828,0.384,1.504,0.503C296.542,181.683,297.355,181.631,297.396,181.398z"/>
		<path style="fill:#263238;" d="M292.341,183.896c0.281-0.773,0.389-1.467,0.283-1.716c0.003-0.324-0.162-0.904-0.453-1.528
			c-0.413-0.885-0.922-1.522-1.136-1.422c-0.215,0.1-0.054,0.899,0.359,1.784c0.268,0.576,0.577,1.045,0.819,1.276
			c-0.216,0.26-0.47,0.74-0.678,1.312c-0.334,0.918-0.425,1.728-0.202,1.809C291.556,185.492,292.007,184.814,292.341,183.896z"/>
		<path style="fill:#263238;" d="M298.518,176.926c-0.1-0.215-0.899-0.054-1.784,0.359c-0.576,0.268-1.045,0.577-1.276,0.819
			c-0.26-0.216-0.74-0.47-1.312-0.678c-0.918-0.334-1.728-0.425-1.809-0.202c-0.081,0.223,0.598,0.674,1.516,1.008
			c0.773,0.281,1.467,0.389,1.716,0.284c0.324,0.003,0.904-0.162,1.527-0.453C297.982,177.649,298.618,177.14,298.518,176.926z"/>
		<path style="fill:#263238;" d="M282.22,166.221c0.233-0.041,0.56,0.706,0.729,1.668c0.111,0.627,0.126,1.187,0.059,1.515
			c0.326,0.089,0.81,0.336,1.31,0.686c0.8,0.56,1.339,1.172,1.203,1.366c-0.136,0.194-0.895-0.103-1.695-0.663
			c-0.68-0.476-1.169-0.988-1.218-1.25c-0.188-0.265-0.384-0.828-0.503-1.504C281.935,167.076,281.986,166.263,282.22,166.221z"/>
		<path style="fill:#263238;" d="M279.722,171.277c0.773-0.281,1.467-0.389,1.716-0.283c0.324-0.003,0.904,0.162,1.527,0.453
			c0.885,0.413,1.522,0.922,1.422,1.136c-0.1,0.215-0.899,0.054-1.784-0.359c-0.576-0.268-1.045-0.577-1.276-0.819
			c-0.26,0.216-0.74,0.47-1.312,0.678c-0.918,0.334-1.728,0.425-1.809,0.202C278.125,172.062,278.804,171.611,279.722,171.277z"/>
		<path style="fill:#263238;" d="M286.692,165.099c0.215,0.1,0.054,0.899-0.359,1.785c-0.268,0.576-0.577,1.045-0.819,1.276
			c0.216,0.26,0.47,0.74,0.678,1.312c0.334,0.918,0.424,1.728,0.202,1.809c-0.223,0.081-0.674-0.598-1.008-1.516
			c-0.281-0.773-0.389-1.467-0.284-1.716c-0.003-0.324,0.162-0.904,0.453-1.528C285.968,165.636,286.477,164.999,286.692,165.099z"
			/>
		<g>
			<path style="fill:#407BFF;" d="M291.715,170.493c-0.698,0-1.265,0.566-1.265,1.264s0.566,1.265,1.265,1.265
				s1.265-0.566,1.265-1.265h-1.265V170.493z"/>
			<path style="opacity:0.2;" d="M291.715,170.493c-0.698,0-1.265,0.566-1.265,1.264s0.566,1.265,1.265,1.265
				s1.265-0.566,1.265-1.265h-1.265V170.493z"/>
		</g>
		<g>
			<path style="fill:#407BFF;" d="M284.164,170.274c-0.901,0.444-1.762,1.051-2.533,1.822c-3.206,3.206-3.624,7.987-0.933,10.678
				c2.691,2.691,7.472,2.273,10.678-0.933c0.77-0.77,1.378-1.632,1.822-2.533L284.164,170.274z"/>
			<path style="opacity:0.3;" d="M284.164,170.274c-0.901,0.444-1.762,1.051-2.533,1.822c-3.206,3.206-3.624,7.987-0.933,10.678
				c2.691,2.691,7.472,2.273,10.678-0.933c0.77-0.77,1.378-1.632,1.822-2.533L284.164,170.274z"/>
		</g>
		<path style="fill:#407BFF;" d="M285.067,171.178l7.227,7.227c1.124-2.28,0.925-4.881-0.711-6.517
			C289.948,170.253,287.348,170.054,285.067,171.178z"/>
		<path style="opacity:0.5;" d="M285.067,171.178l7.227,7.227c1.124-2.28,0.925-4.881-0.711-6.517
			C289.948,170.253,287.348,170.054,285.067,171.178z"/>
		<path style="opacity:0.2;" d="M284.164,170.274c-0.901,0.444-1.762,1.051-2.533,1.822c-3.206,3.206-3.624,7.987-0.933,10.678
			l7.983-7.983L284.164,170.274z"/>
		<g>
			<g>
				<path style="fill:#263238;" d="M288.212,164.431c0.766,0.311,1.515,0.808,2.094,1.393c1.548,1.562,1.239,3.452-0.034,5.101
					c-0.085,0.111,0.069,0.267,0.156,0.156c1.159-1.501,1.702-3.302,0.463-4.927c-0.652-0.855-1.629-1.532-2.623-1.936
					C288.138,164.165,288.083,164.378,288.212,164.431L288.212,164.431z"/>
			</g>
			<g>
				<path style="fill:#263238;" d="M299.254,175.204c-0.404-0.993-1.081-1.971-1.936-2.623c-1.624-1.239-3.426-0.697-4.927,0.463
					c-0.112,0.086,0.045,0.241,0.156,0.156c1.644-1.269,3.543-1.587,5.101-0.034c0.584,0.582,1.081,1.327,1.393,2.094
					C299.094,175.389,299.307,175.335,299.254,175.204L299.254,175.204z"/>
			</g>
		</g>
		<g>
			<path style="fill:#407BFF;" d="M285.222,174.888c-0.506,0.506-1.326,0.506-1.832,0c-0.506-0.506-0.506-1.326,0-1.832
				c0.506-0.506,1.326-0.506,1.832,0C285.728,173.561,285.728,174.382,285.222,174.888z"/>
			<path style="fill:#407BFF;" d="M290.417,180.082c-0.506,0.506-1.326,0.506-1.832,0c-0.506-0.506-0.506-1.326,0-1.832
				c0.506-0.506,1.326-0.506,1.832,0C290.923,178.756,290.923,179.576,290.417,180.082z"/>
			<path style="fill:#407BFF;" d="M282.406,178.948c-0.506,0.506-1.326,0.506-1.832,0c-0.506-0.506-0.506-1.326,0-1.832
				c0.506-0.506,1.326-0.506,1.832,0C282.912,177.622,282.912,178.442,282.406,178.948z"/>
			<path style="fill:#407BFF;" d="M286.357,182.898c-0.506,0.506-1.326,0.506-1.832,0c-0.506-0.506-0.506-1.326,0-1.832
				c0.506-0.506,1.326-0.506,1.832,0C286.863,181.572,286.863,182.392,286.357,182.898z"/>
		</g>
		<g style="opacity:0.7;">
			<path style="fill:#FFFFFF;" d="M285.222,174.888c-0.506,0.506-1.326,0.506-1.832,0c-0.506-0.506-0.506-1.326,0-1.832
				c0.506-0.506,1.326-0.506,1.832,0C285.728,173.561,285.728,174.382,285.222,174.888z"/>
			<path style="fill:#FFFFFF;" d="M290.417,180.082c-0.506,0.506-1.326,0.506-1.832,0c-0.506-0.506-0.506-1.326,0-1.832
				c0.506-0.506,1.326-0.506,1.832,0C290.923,178.756,290.923,179.576,290.417,180.082z"/>
			<path style="fill:#FFFFFF;" d="M282.406,178.948c-0.506,0.506-1.326,0.506-1.832,0c-0.506-0.506-0.506-1.326,0-1.832
				c0.506-0.506,1.326-0.506,1.832,0C282.912,177.622,282.912,178.442,282.406,178.948z"/>
			<path style="fill:#FFFFFF;" d="M286.357,182.898c-0.506,0.506-1.326,0.506-1.832,0c-0.506-0.506-0.506-1.326,0-1.832
				c0.506-0.506,1.326-0.506,1.832,0C286.863,181.572,286.863,182.392,286.357,182.898z"/>
		</g>
	</g>
	<g>
		<path style="fill:#263238;" d="M195.155,287.147c-0.233-0.041-0.56,0.706-0.73,1.668c-0.11,0.627-0.126,1.187-0.059,1.515
			c-0.326,0.089-0.81,0.336-1.31,0.686c-0.8,0.56-1.339,1.172-1.203,1.366c0.136,0.194,0.895-0.103,1.695-0.663
			c0.68-0.476,1.169-0.988,1.218-1.251c0.188-0.265,0.384-0.828,0.503-1.504C195.44,288.002,195.388,287.189,195.155,287.147z"/>
		<path style="fill:#263238;" d="M197.653,292.203c-0.773-0.281-1.467-0.389-1.717-0.284c-0.324-0.003-0.904,0.162-1.527,0.453
			c-0.885,0.413-1.522,0.922-1.422,1.136c0.1,0.215,0.899,0.054,1.785-0.359c0.576-0.268,1.045-0.577,1.276-0.819
			c0.26,0.216,0.739,0.47,1.312,0.678c0.918,0.334,1.728,0.425,1.809,0.202C199.249,292.988,198.571,292.537,197.653,292.203z"/>
		<path style="fill:#263238;" d="M190.683,286.025c-0.215,0.1-0.054,0.899,0.359,1.785c0.268,0.576,0.577,1.045,0.819,1.276
			c-0.216,0.26-0.47,0.74-0.678,1.312c-0.334,0.918-0.425,1.728-0.202,1.809c0.222,0.081,0.674-0.598,1.008-1.516
			c0.281-0.773,0.389-1.467,0.283-1.717c0.003-0.324-0.162-0.904-0.453-1.527C191.406,286.562,190.897,285.925,190.683,286.025z"/>
		<path style="fill:#263238;" d="M179.979,302.324c-0.041-0.233,0.706-0.56,1.668-0.729c0.627-0.111,1.187-0.126,1.515-0.059
			c0.089-0.326,0.336-0.81,0.686-1.31c0.56-0.8,1.172-1.339,1.366-1.203c0.194,0.136-0.103,0.895-0.663,1.695
			c-0.476,0.68-0.988,1.169-1.251,1.218c-0.265,0.188-0.828,0.384-1.504,0.503C180.833,302.608,180.02,302.557,179.979,302.324z"/>
		<path style="fill:#263238;" d="M185.034,304.822c-0.281-0.773-0.389-1.467-0.283-1.716c-0.003-0.324,0.162-0.904,0.453-1.528
			c0.413-0.885,0.922-1.522,1.136-1.422c0.215,0.1,0.054,0.899-0.359,1.784c-0.268,0.576-0.577,1.045-0.819,1.276
			c0.216,0.26,0.47,0.74,0.678,1.312c0.334,0.918,0.425,1.728,0.202,1.809C185.819,306.418,185.368,305.74,185.034,304.822z"/>
		<path style="fill:#263238;" d="M178.856,297.852c0.1-0.215,0.899-0.054,1.785,0.359c0.576,0.268,1.045,0.577,1.276,0.819
			c0.26-0.216,0.74-0.47,1.312-0.678c0.918-0.334,1.728-0.425,1.809-0.202c0.081,0.223-0.597,0.674-1.516,1.008
			c-0.773,0.281-1.467,0.389-1.717,0.283c-0.324,0.003-0.903-0.162-1.527-0.453C179.393,298.575,178.756,298.066,178.856,297.852z"
			/>
		<g>
			<path style="fill:#407BFF;" d="M184.25,292.829c0,0.698,0.566,1.265,1.265,1.265c0.698,0,1.265-0.566,1.265-1.265
				s-0.566-1.264-1.265-1.264v1.264H184.25z"/>
			<path style="opacity:0.2;" d="M184.25,292.829c0,0.698,0.566,1.265,1.265,1.265c0.698,0,1.265-0.566,1.265-1.265
				s-0.566-1.264-1.265-1.264v1.264H184.25z"/>
		</g>
		<g>
			<path style="fill:#407BFF;" d="M184.031,300.38c0.444,0.901,1.051,1.762,1.822,2.533c3.206,3.206,7.987,3.624,10.678,0.933
				c2.691-2.691,2.273-7.472-0.933-10.678c-0.77-0.77-1.632-1.378-2.533-1.822L184.031,300.38z"/>
			<path style="opacity:0.3;" d="M184.031,300.38c0.444,0.901,1.051,1.762,1.822,2.533c3.206,3.206,7.987,3.624,10.678,0.933
				c2.691-2.691,2.273-7.472-0.933-10.678c-0.77-0.77-1.632-1.378-2.533-1.822L184.031,300.38z"/>
		</g>
		<path style="fill:#407BFF;" d="M184.935,299.476l7.227-7.227c-2.28-1.123-4.881-0.925-6.516,0.711
			C184.01,294.595,183.811,297.196,184.935,299.476z"/>
		<path style="opacity:0.5;" d="M184.935,299.476l7.227-7.227c-2.28-1.123-4.881-0.925-6.516,0.711
			C184.01,294.595,183.811,297.196,184.935,299.476z"/>
		<path style="opacity:0.2;" d="M184.031,300.38c0.444,0.901,1.051,1.762,1.822,2.533c3.206,3.206,7.987,3.624,10.678,0.933
			l-7.983-7.983L184.031,300.38z"/>
		<g>
			<g>
				<path style="fill:#263238;" d="M178.188,296.331c0.311-0.766,0.809-1.515,1.393-2.094c1.562-1.548,3.452-1.239,5.101,0.034
					c0.111,0.085,0.267-0.069,0.156-0.155c-1.501-1.159-3.302-1.702-4.927-0.463c-0.855,0.652-1.532,1.629-1.936,2.623
					C177.922,296.406,178.135,296.461,178.188,296.331L178.188,296.331z"/>
			</g>
			<g>
				<path style="fill:#263238;" d="M188.961,285.29c-0.993,0.404-1.971,1.081-2.623,1.936c-1.239,1.624-0.697,3.426,0.463,4.927
					c0.086,0.112,0.241-0.045,0.156-0.156c-1.269-1.644-1.587-3.543-0.034-5.101c0.582-0.584,1.327-1.081,2.094-1.393
					C189.146,285.45,189.092,285.236,188.961,285.29L188.961,285.29z"/>
			</g>
		</g>
		<g>
			<path style="fill:#407BFF;" d="M188.645,299.321c0.506,0.506,0.506,1.326,0,1.832c-0.506,0.506-1.326,0.506-1.832,0
				c-0.506-0.506-0.506-1.326,0-1.832C187.318,298.815,188.139,298.815,188.645,299.321z"/>
			<path style="fill:#407BFF;" d="M193.839,294.127c0.506,0.506,0.506,1.326,0,1.832c-0.506,0.506-1.326,0.506-1.832,0
				c-0.506-0.506-0.506-1.326,0-1.832C192.513,293.621,193.333,293.621,193.839,294.127z"/>
			<path style="fill:#407BFF;" d="M192.705,302.137c0.506,0.506,0.506,1.326,0,1.832c-0.506,0.506-1.326,0.506-1.832,0
				c-0.506-0.506-0.506-1.326,0-1.832C191.378,301.631,192.199,301.631,192.705,302.137z"/>
			<path style="fill:#407BFF;" d="M196.655,298.187c0.506,0.506,0.506,1.326,0,1.832c-0.506,0.506-1.326,0.506-1.832,0
				c-0.506-0.506-0.506-1.326,0-1.832C195.329,297.681,196.149,297.681,196.655,298.187z"/>
		</g>
		<g style="opacity:0.7;">
			<path style="fill:#FFFFFF;" d="M188.645,299.321c0.506,0.506,0.506,1.326,0,1.832c-0.506,0.506-1.326,0.506-1.832,0
				c-0.506-0.506-0.506-1.326,0-1.832C187.318,298.815,188.139,298.815,188.645,299.321z"/>
			<path style="fill:#FFFFFF;" d="M193.839,294.127c0.506,0.506,0.506,1.326,0,1.832c-0.506,0.506-1.326,0.506-1.832,0
				c-0.506-0.506-0.506-1.326,0-1.832C192.513,293.621,193.333,293.621,193.839,294.127z"/>
			<path style="fill:#FFFFFF;" d="M192.705,302.137c0.506,0.506,0.506,1.326,0,1.832c-0.506,0.506-1.326,0.506-1.832,0
				c-0.506-0.506-0.506-1.326,0-1.832C191.378,301.631,192.199,301.631,192.705,302.137z"/>
			<path style="fill:#FFFFFF;" d="M196.655,298.187c0.506,0.506,0.506,1.326,0,1.832c-0.506,0.506-1.326,0.506-1.832,0
				c-0.506-0.506-0.506-1.326,0-1.832C195.329,297.681,196.149,297.681,196.655,298.187z"/>
		</g>
	</g>
</g>
<g id="Character_2">
	<g>
		<g>
			<path style="fill:#263238;" d="M344.348,160.007c-0.389-0.069-0.933,1.176-1.216,2.779c-0.184,1.045-0.209,1.978-0.099,2.524
				c-0.543,0.148-1.35,0.56-2.183,1.144c-1.334,0.934-2.232,1.953-2.005,2.277c0.226,0.323,1.491-0.172,2.825-1.106
				c1.133-0.793,1.949-1.647,2.03-2.084c0.313-0.441,0.64-1.38,0.839-2.507C344.823,161.431,344.737,160.076,344.348,160.007z"/>
			<path style="fill:#263238;" d="M348.512,168.432c-1.288-0.469-2.445-0.648-2.861-0.473c-0.54-0.004-1.506,0.27-2.546,0.755
				c-1.476,0.688-2.537,1.536-2.37,1.894c0.167,0.358,1.498,0.09,2.974-0.598c0.959-0.447,1.741-0.962,2.126-1.366
				c0.433,0.36,1.232,0.783,2.187,1.13c1.53,0.557,2.88,0.708,3.015,0.337C351.172,169.742,350.042,168.989,348.512,168.432z"/>
			<path style="fill:#263238;" d="M336.895,158.137c-0.358,0.167-0.09,1.499,0.598,2.974c0.447,0.96,0.962,1.741,1.366,2.126
				c-0.359,0.433-0.783,1.232-1.13,2.187c-0.557,1.53-0.708,2.88-0.337,3.015c0.371,0.135,1.123-0.996,1.68-2.526
				c0.469-1.288,0.648-2.445,0.473-2.861c0.004-0.54-0.271-1.506-0.755-2.546C338.1,159.031,337.253,157.97,336.895,158.137z"/>
			<path style="fill:#263238;" d="M319.054,185.301c-0.069-0.389,1.176-0.933,2.779-1.216c1.045-0.184,1.978-0.209,2.524-0.099
				c0.148-0.543,0.56-1.349,1.144-2.183c0.934-1.334,1.953-2.232,2.276-2.005c0.323,0.226-0.171,1.491-1.105,2.825
				c-0.793,1.133-1.647,1.949-2.084,2.03c-0.441,0.312-1.38,0.64-2.507,0.839C320.478,185.776,319.123,185.69,319.054,185.301z"/>
			<path style="fill:#263238;" d="M327.479,189.464c-0.469-1.288-0.648-2.445-0.473-2.861c-0.004-0.54,0.271-1.506,0.756-2.546
				c0.688-1.476,1.536-2.537,1.894-2.37c0.358,0.167,0.09,1.498-0.598,2.974c-0.447,0.96-0.962,1.741-1.366,2.126
				c0.359,0.433,0.783,1.232,1.13,2.187c0.557,1.53,0.708,2.88,0.337,3.015C328.789,192.125,328.036,190.995,327.479,189.464z"/>
			<path style="fill:#263238;" d="M317.184,177.848c0.167-0.358,1.498-0.09,2.974,0.598c0.96,0.447,1.741,0.962,2.126,1.366
				c0.434-0.359,1.233-0.783,2.187-1.13c1.53-0.557,2.88-0.708,3.015-0.337c0.135,0.371-0.996,1.123-2.526,1.68
				c-1.288,0.469-2.445,0.648-2.861,0.473c-0.54,0.004-1.506-0.271-2.546-0.756C318.078,179.053,317.017,178.205,317.184,177.848z"
				/>
			<g>
				<path style="fill:#407BFF;" d="M326.173,169.476c0,1.164,0.944,2.108,2.108,2.108c1.164,0,2.108-0.944,2.108-2.108
					s-0.944-2.108-2.108-2.108v2.108H326.173z"/>
				<path style="opacity:0.2;" d="M326.173,169.476c0,1.164,0.944,2.108,2.108,2.108c1.164,0,2.108-0.944,2.108-2.108
					s-0.944-2.108-2.108-2.108v2.108H326.173z"/>
			</g>
			<g>
				<path style="fill:#407BFF;" d="M325.809,182.061c0.74,1.502,1.752,2.938,3.036,4.221c5.344,5.344,13.312,6.04,17.797,1.555
					c4.485-4.485,3.789-12.453-1.555-17.797c-1.283-1.284-2.719-2.296-4.221-3.036L325.809,182.061z"/>
				<path style="opacity:0.3;" d="M325.809,182.061c0.74,1.502,1.752,2.938,3.036,4.221c5.344,5.344,13.312,6.04,17.797,1.555
					c4.485-4.485,3.789-12.453-1.555-17.797c-1.283-1.284-2.719-2.296-4.221-3.036L325.809,182.061z"/>
			</g>
			<path style="fill:#407BFF;" d="M327.315,180.555l12.045-12.046c-3.8-1.872-8.134-1.542-10.861,1.185
				C325.773,172.421,325.442,176.755,327.315,180.555z"/>
			<path style="opacity:0.5;" d="M327.315,180.555l12.045-12.046c-3.8-1.872-8.134-1.542-10.861,1.185
				C325.773,172.421,325.442,176.755,327.315,180.555z"/>
			<path style="opacity:0.2;" d="M325.809,182.061c0.74,1.502,1.752,2.938,3.036,4.221c5.344,5.344,13.312,6.04,17.797,1.555
				l-13.305-13.305L325.809,182.061z"/>
			<g>
				<g>
					<path style="fill:#263238;" d="M316.07,175.313c0.519-1.277,1.347-2.524,2.322-3.49c2.603-2.581,5.754-2.066,8.502,0.057
						c0.184,0.142,0.446-0.115,0.259-0.259c-2.502-1.932-5.503-2.837-8.211-0.771c-1.425,1.086-2.554,2.715-3.227,4.371
						C315.627,175.438,315.983,175.529,316.07,175.313L316.07,175.313z"/>
				</g>
				<g>
					<path style="fill:#263238;" d="M334.025,156.911c-1.655,0.673-3.285,1.802-4.371,3.226c-2.064,2.707-1.161,5.709,0.771,8.212
						c0.144,0.186,0.401-0.075,0.259-0.259c-2.116-2.739-2.645-5.906-0.057-8.502c0.97-0.973,2.211-1.802,3.491-2.322
						C334.334,157.178,334.243,156.822,334.025,156.911L334.025,156.911z"/>
				</g>
			</g>
			<g>
				<path style="fill:#407BFF;" d="M333.498,180.297c0.843,0.843,0.843,2.21,0,3.054c-0.843,0.843-2.21,0.843-3.054,0
					c-0.843-0.843-0.843-2.21,0-3.054C331.287,179.454,332.655,179.454,333.498,180.297z"/>
				<path style="fill:#407BFF;" d="M342.156,171.639c0.843,0.843,0.843,2.21,0,3.054c-0.843,0.843-2.211,0.843-3.054,0
					c-0.843-0.843-0.843-2.21,0-3.054C339.945,170.796,341.312,170.796,342.156,171.639z"/>
				<path style="fill:#407BFF;" d="M340.265,184.99c0.843,0.843,0.843,2.211,0,3.054c-0.843,0.843-2.21,0.843-3.054,0
					c-0.843-0.843-0.843-2.211,0-3.054C338.054,184.147,339.422,184.147,340.265,184.99z"/>
				<path style="fill:#407BFF;" d="M346.849,178.406c0.843,0.843,0.843,2.211,0,3.054c-0.843,0.843-2.21,0.843-3.054,0
					c-0.843-0.843-0.843-2.211,0-3.054C344.639,177.563,346.006,177.563,346.849,178.406z"/>
			</g>
			<g style="opacity:0.7;">
				<path style="fill:#FFFFFF;" d="M333.498,180.297c0.843,0.843,0.843,2.21,0,3.054c-0.843,0.843-2.21,0.843-3.054,0
					c-0.843-0.843-0.843-2.21,0-3.054C331.287,179.454,332.655,179.454,333.498,180.297z"/>
				<path style="fill:#FFFFFF;" d="M342.156,171.639c0.843,0.843,0.843,2.21,0,3.054c-0.843,0.843-2.211,0.843-3.054,0
					c-0.843-0.843-0.843-2.21,0-3.054C339.945,170.796,341.312,170.796,342.156,171.639z"/>
				<path style="fill:#FFFFFF;" d="M340.265,184.99c0.843,0.843,0.843,2.211,0,3.054c-0.843,0.843-2.21,0.843-3.054,0
					c-0.843-0.843-0.843-2.211,0-3.054C338.054,184.147,339.422,184.147,340.265,184.99z"/>
				<path style="fill:#FFFFFF;" d="M346.849,178.406c0.843,0.843,0.843,2.211,0,3.054c-0.843,0.843-2.21,0.843-3.054,0
					c-0.843-0.843-0.843-2.211,0-3.054C344.639,177.563,346.006,177.563,346.849,178.406z"/>
			</g>
		</g>
		<g>
			<g>
				
					<rect x="337.311" y="198.56" transform="matrix(0.9848 -0.1736 0.1736 0.9848 -29.7537 62.0647)" width="5.036" height="5.036"/>
				
					<rect x="337.311" y="198.56" transform="matrix(0.9848 -0.1736 0.1736 0.9848 -29.7537 62.0647)" style="opacity:0.5;fill:#FFFFFF;" width="5.036" height="5.036"/>
				<path d="M345.89,231.094l-1.49,0.263c-1.586,0.28-3.099-0.779-3.379-2.366l-4.134-23.446c-0.28-1.586,0.779-3.099,2.366-3.379
					l1.49-0.263c1.586-0.28,3.099,0.779,3.379,2.366l4.134,23.446C348.535,229.302,347.476,230.815,345.89,231.094z"/>
				<g>
					<path style="opacity:0.1;" d="M344.304,155.37c0.13,0.549,0.248,1.104,0.348,1.667c2.815,15.963-7.844,31.186-23.808,34.001
						c-0.563,0.099-1.125,0.177-1.686,0.244c4.994,5.254,12.44,7.988,20.113,6.635c12.168-2.145,20.292-13.749,18.147-25.916
						C356.065,164.327,350.949,158.266,344.304,155.37z"/>
					<path style="fill:#407BFF;" d="M330.944,150.693c-13.913,2.453-23.203,15.721-20.75,29.634
						c2.453,13.913,15.721,23.204,29.634,20.75c13.913-2.453,23.204-15.721,20.75-29.634
						C358.126,157.53,344.858,148.24,330.944,150.693z M338.953,196.113c-11.171,1.97-21.824-5.49-23.794-16.661
						c-1.97-11.171,5.49-21.824,16.661-23.794s21.824,5.49,23.794,16.661C357.584,183.49,350.125,194.143,338.953,196.113z"/>
				</g>
			</g>
			<path style="fill:#FFC3BD;" d="M415.96,204.266c0.98,1.529,1.817,2.995,2.675,4.512c0.854,1.506,1.665,3.034,2.447,4.581
				c1.566,3.093,3.003,6.268,4.28,9.553c0.655,1.633,1.215,3.325,1.754,5.035l0.104,0.33l0.135,0.537
				c0.094,0.353,0.148,0.725,0.19,1.1c0.095,0.745,0.059,1.51-0.042,2.242c-0.222,1.469-0.789,2.742-1.454,3.773
				c-1.366,2.061-3.023,3.33-4.677,4.359c-0.837,0.502-1.676,0.95-2.546,1.312c-0.881,0.376-1.694,0.693-2.688,0.974l-1.894-4.035
				c1.124-0.934,2.35-2.027,3.311-3.089c0.978-1.056,1.781-2.194,2.069-3.086c0.149-0.439,0.183-0.78,0.126-0.992
				c-0.036-0.107-0.064-0.191-0.111-0.277c-0.021-0.042-0.035-0.086-0.074-0.134c-0.015-0.024-0.027-0.047-0.037-0.072l-0.109-0.265
				c-0.587-1.467-1.231-2.924-1.908-4.389c-1.36-2.92-2.85-5.825-4.411-8.704l-2.371-4.309l-2.423-4.22L415.96,204.266z"/>
			<path style="fill:#FFC3BD;" d="M416.314,237.989l-4.406-1.145l-0.253,7.114c0,0,3.447,0.512,5.557-1.596L416.314,237.989z"/>
			<polygon style="fill:#FFC3BD;" points="405.664,235.645 406.658,241.89 411.655,243.958 411.908,236.844 			"/>
			<path style="fill:#263238;" d="M387.438,175.566c-0.099,0.487-0.437,0.829-0.756,0.765c-0.318-0.065-0.496-0.512-0.397-0.999
				c0.099-0.487,0.437-0.829,0.755-0.764C387.359,174.632,387.537,175.079,387.438,175.566z"/>
			<path style="fill:#ED847E;" d="M387.045,176.405c0,0-1.678,2.584-3.173,3.692c0.698,0.979,2.238,0.909,2.238,0.909
				L387.045,176.405z"/>
			<path style="fill:#263238;" d="M389.77,173.225c0.071,0,0.142-0.026,0.198-0.077c0.118-0.109,0.126-0.294,0.016-0.412
				c-1.096-1.186-2.425-0.975-2.483-0.966c-0.159,0.027-0.266,0.178-0.239,0.337c0.027,0.159,0.18,0.265,0.335,0.239l0,0
				c0.044-0.007,1.083-0.16,1.958,0.786C389.613,173.193,389.692,173.225,389.77,173.225z"/>
			<path style="fill:#FFC3BD;" d="M401.309,182.415c-0.884,4.507-1.765,12.765,1.388,15.772c0,0-1.232,4.572-9.606,4.572
				c-9.209,0-4.401-4.571-4.401-4.571c5.026-1.2,4.896-4.929,4.021-8.431L401.309,182.415z"/>
			<path style="fill:#407BFF;" d="M404.513,199.023c0.673-1.252,1.415-2.685-0.119-3.134c-1.687-0.494-12.525-1.41-15.709-0.483
				c0.978,1.74-0.678,3.879-0.678,3.879L404.513,199.023z"/>
			<path style="opacity:0.3;" d="M404.513,199.023c0.673-1.252,1.415-2.685-0.119-3.134c-1.687-0.494-12.525-1.41-15.709-0.483
				c0.978,1.74-0.678,3.879-0.678,3.879L404.513,199.023z"/>
			<polygon style="fill:#FFC3BD;" points="394.946,409.85 388.786,409.85 388.172,395.584 394.333,395.584 			"/>
			<polygon style="fill:#FFC3BD;" points="440.163,406.999 434.142,408.302 428.097,395.014 434.118,393.71 			"/>
			<path style="fill:#263238;" d="M433.563,407.698l6.764-1.465c0.246-0.053,0.496,0.072,0.602,0.3l2.348,5.094
				c0.244,0.529-0.079,1.148-0.65,1.262c-2.37,0.471-3.548,0.58-6.522,1.225c-1.83,0.396-5.961,1.403-8.489,1.95
				c-2.472,0.535-3.398-1.88-2.413-2.331c4.419-2.019,6.266-3.797,7.462-5.454C432.881,407.981,433.203,407.776,433.563,407.698z"/>
			<path style="fill:#263238;" d="M388.826,409.137h6.728c0.252,0,0.47,0.175,0.525,0.421l1.217,5.476
				c0.126,0.568-0.305,1.106-0.886,1.096c-2.427-0.041-5.934-0.184-8.984-0.184c-3.567,0-6.647,0.194-10.83,0.194
				c-2.529,0-3.231-2.557-2.172-2.788c4.819-1.054,8.754-1.167,12.919-3.735C387.795,409.338,388.295,409.137,388.826,409.137z"/>
			<g>
				<path style="fill:#407BFF;" d="M413.727,199.58c5.774,1.324,10.535,16.064,10.535,16.064l-11.595,8.838
					c0,0-4.255-4.012-6.15-11.386C404.533,205.371,407.823,198.227,413.727,199.58z"/>
			</g>
			<path style="opacity:0.2;" d="M408.779,210.42c3.136,3.103,4.159,8.755,4.403,13.669l-0.512,0.394c0,0-4.26-4.017-6.155-11.388
				c-0.117-0.461-0.218-0.923-0.302-1.375L408.779,210.42z"/>
			<g>
				<path style="fill:#407BFF;" d="M379.214,199.898c0,0-6.557,7.406-0.365,53.248c9.928,0,28.12,0,32.951,0
					c0.227-5.058-2.951-29.733,1.927-53.566c0,0-5.648-1.133-11.03-1.393c-4.21-0.203-10.306-0.337-14.007,0.001
					C383.81,198.633,379.214,199.898,379.214,199.898z"/>
			</g>
			<path style="opacity:0.2;" d="M376.334,213.909l0.126-0.109l7.489,1.794c0.428,5.065-4.78,11.12-7.463,13.887
				C376.116,223.016,376.124,217.917,376.334,213.909z"/>
			<g>
				<polygon style="opacity:0.2;" points="388.174,395.588 388.489,402.942 394.652,402.942 394.337,395.588 				"/>
				<polygon style="opacity:0.2;" points="434.121,393.714 428.097,395.018 431.216,401.866 437.24,400.562 				"/>
			</g>
			<path style="fill:#FFC3BD;" d="M403.889,177.835c-1.583,5.906-2.209,9.443-5.853,11.898c-5.482,3.694-12.307-0.545-12.521-6.805
				c-0.192-5.634,2.428-14.346,8.766-15.536C400.525,166.22,405.472,171.93,403.889,177.835z"/>
			<path style="fill:#407BFF;" d="M390.538,253.146c0,0,6.991,47.08,10.83,64.718c4.203,19.315,26.741,83.218,26.741,83.218
				l11.028-2.388c0,0-15.76-52.077-19.287-79.08c-1.159-8.872-2.799-17.315-4.297-29.795c-0.554-4.618-0.089-14.104-0.572-18.178
				c-0.509-4.288-1.961-8.12-2.32-11.168c-0.533-4.528-0.86-7.328-0.86-7.328H390.538z"/>
			<path style="fill:#407BFF;" d="M425.468,397.401c-0.047,0.01,2.055,3.988,2.055,3.988l12.408-2.686l-1.046-3.73L425.468,397.401z
				"/>
			<path style="opacity:0.3;" d="M425.468,397.401c-0.047,0.01,2.055,3.988,2.055,3.988l12.408-2.686l-1.046-3.73L425.468,397.401z"
				/>
			<path style="opacity:0.3;" d="M394.957,269.92c8.084,1.585,7.229,31.732,6.256,47.238c-2.331-10.96-5.744-32.051-8.076-47.02
				C393.673,269.87,394.277,269.786,394.957,269.92z"/>
			<path style="fill:#407BFF;" d="M378.849,253.146c0,0-0.848,46.061-0.178,64.848c0.697,19.541,7.522,83.524,7.522,83.524h10.436
				c0,0,0.383-62.841,0.847-82.032c0.506-20.922,3.032-66.339,3.032-66.339H378.849z"/>
			<path style="fill:#407BFF;" d="M384.185,397.361c-0.048,0,0.589,4.333,0.589,4.333h12.695l0.343-3.867L384.185,397.361z"/>
			<path style="opacity:0.3;" d="M384.185,397.361c-0.048,0,0.589,4.333,0.589,4.333h12.695l0.343-3.867L384.185,397.361z"/>
			<path style="fill:#FFC3BD;" d="M376.32,205.604c-0.95,1.484-2.032,3.138-3.11,4.673c-1.1,1.548-2.208,3.085-3.361,4.578
				c-1.155,1.482-2.33,2.952-3.565,4.32c-0.598,0.716-1.245,1.344-1.865,2.024c-0.647,0.616-1.281,1.285-1.943,1.854l-0.987,0.878
				l-1.009,0.789l-0.414,0.325c-0.278-0.045-0.656-0.148-1.058-0.324c-0.658-0.283-1.4-0.663-2.134-1.12
				c-2.957-1.849-5.992-4.415-8.844-6.918l-3.468,2.801c2.244,3.576,4.711,6.816,8.079,9.785c0.856,0.732,1.77,1.457,2.868,2.102
				c1.103,0.634,2.355,1.282,4.179,1.548c0.91,0.118,2.01,0.094,3.143-0.267c0.554-0.164,1.137-0.456,1.595-0.737l0.71-0.467
				c0.47-0.314,0.952-0.623,1.411-0.946l1.321-1.006c3.473-2.73,6.328-5.839,9.011-9.046c1.303-1.628,2.583-3.265,3.761-4.97
				c1.192-1.723,2.315-3.373,3.423-5.286L376.32,205.604z M360.44,225.061c-0.051,0.019-0.164,0.014-0.299-0.004
				c0.034-0.01,0.07-0.021,0.095-0.027C360.43,224.996,360.514,225.033,360.44,225.061z"/>
			<g>
				<path style="fill:#407BFF;" d="M388.277,209.216c1.971,8.26-12.974,16.348-12.974,16.348l-9.707-11.373
					c0,0,4.419-6.697,9.917-11.973C382.304,195.7,386.777,202.929,388.277,209.216z"/>
			</g>
			<path style="fill:#FFC3BD;" d="M345.425,220.442l-5.587-5.306l5.36-4.081c0,0,4.427,3.16,3.322,7.509L345.425,220.442z"/>
			<polygon style="fill:#FFC3BD;" points="338.077,213.065 341.823,208.848 345.198,211.055 339.838,215.135 			"/>
			<path style="fill:#263238;" d="M391.304,176.405c0,0-3.33-3.844-2.833-7.473c0,0-3.104-5.202-0.203-7.038
				c2.9-1.836,4.713,2.102,4.713,2.102s1.875-4.063,4.563-3.563s2.032,4.063,2.032,4.063s3.593-3.139,5.843-2.163
				c2.25,0.976,0.938,4.476,0.938,4.476s3.677-0.696,4.526,1.589c0.849,2.286-1.346,3.679-1.346,3.679s3.308,1.237,3.408,4.328
				c0.1,3.091-3.462,2.77-3.462,2.77s-0.608,4.592-7.677,8.509c-0.446,0.247-0.982,0.309-1.468,0.153
				c-0.579-0.185-1.532-0.345-2.797-0.062c-0.733,0.164-1.493-0.13-1.946-0.728c-0.965-1.275-2.486-3.354-2.923-4.364
				C392.029,181.209,391.304,176.405,391.304,176.405z"/>
			<path style="opacity:0.3;fill:#FFFFFF;" d="M406.418,179.996c-2.188,3.938-4.875-2.448-4.875-2.448
				c-2.021,5.123-5.75-1.802-5.75-1.802c-0.938,3.625-4.488,0.659-4.488,0.659s0.725,4.805,1.363,6.279
				c0.438,1.01,1.957,3.089,2.923,4.364c0.454,0.599,1.214,0.892,1.947,0.728c1.265-0.284,2.218-0.124,2.797,0.062
				c0.486,0.156,1.022,0.094,1.468-0.153c7.069-3.916,7.677-8.509,7.677-8.509C408.543,182.29,406.418,179.996,406.418,179.996z"/>
			<g>
				<path style="fill:#407BFF;" d="M384.291,177.915c-0.092,0-0.184-0.013-0.275-0.039c-0.302-0.087-0.531-0.291-0.663-0.589
					c-0.587-1.329,0.984-4.589,1.165-4.957l0.181-0.367l6.799,4.121l-0.389,0.642l-4.484-2.718
					c-0.196,0.853-0.804,3.152-1.784,3.746C384.665,177.86,384.478,177.915,384.291,177.915z M385.016,173.032
					c-0.596,1.302-1.282,3.259-0.976,3.952c0.053,0.119,0.123,0.154,0.185,0.171c0.054,0.017,0.122,0.023,0.228-0.042
					c0.646-0.392,1.256-2.352,1.495-3.516L385.016,173.032z"/>
			</g>
			<path style="fill:#FFC3BD;" d="M393.841,178.083c-0.402,1.55-1.42,2.883-2.486,3.676c-1.603,1.193-2.801,0.019-2.687-1.796
				c0.103-1.633,1.06-4.221,2.829-4.705C393.239,174.781,394.3,176.31,393.841,178.083z"/>
		</g>
	</g>
</g>
<g id="Character_1">
	<g>
		<g>
			<g>
				<path style="fill:#407BFF;" d="M204.886,372.683h-48.469c-2.456,0-4.66-1.508-5.549-3.797l-18.739-48.2
					c-1.809-4.653-7.047-6.958-11.7-5.149c0,0-49.288-1.809-53.941,0l-3.684,1.432l24.31,62.529
					c1.447,3.723,5.032,6.176,9.027,6.176h53.941h9.902h53.941v-3.952C213.926,376.73,209.879,372.683,204.886,372.683z"/>
				<path style="opacity:0.3;fill:#FFFFFF;" d="M204.886,372.683h-48.469c-2.456,0-4.66-1.508-5.549-3.797l-18.739-48.2
					c-1.809-4.653-7.047-6.958-11.7-5.149c0,0-49.288-1.809-53.941,0l-3.684,1.432l24.31,62.529
					c1.447,3.723,5.032,6.176,9.027,6.176h53.941h9.902h53.941v-3.952C213.926,376.73,209.879,372.683,204.886,372.683z"/>
				<path style="opacity:0.2;" d="M96.927,368.886l-18.739-48.2c-1.809-4.653-7.047-6.958-11.7-5.149l-3.684,1.432l24.31,62.529
					c1.447,3.723,5.032,6.176,9.027,6.176h63.843v-3.952c0-4.992-4.047-9.039-9.039-9.039h-48.469
					C100.021,372.683,97.817,371.175,96.927,368.886z"/>
			</g>
			<g>
				<g>
					<polygon style="fill:#263238;" points="205.415,390.996 139.654,390.996 132.767,415.896 136.631,415.896 144.062,400.122 
						201.007,400.122 208.438,415.896 212.302,415.896 					"/>
					<polygon style="opacity:0.2;fill:#FFFFFF;" points="205.415,390.996 139.654,390.996 132.767,415.896 136.631,415.896 
						144.062,400.122 201.007,400.122 208.438,415.896 212.302,415.896 					"/>
					<polygon style="fill:#263238;" points="202.292,390.996 136.532,390.996 129.644,415.896 133.509,415.896 140.94,400.122 
						197.885,400.122 205.316,415.896 209.18,415.896 					"/>
					<polygon style="opacity:0.3;fill:#FFFFFF;" points="202.292,390.996 136.532,390.996 129.644,415.896 133.509,415.896 
						140.94,400.122 197.885,400.122 205.316,415.896 209.18,415.896 					"/>
				</g>
				<g>
					<polygon style="fill:#263238;" points="158.581,390.996 92.821,390.996 85.933,415.896 89.798,415.896 97.229,400.122 
						154.173,400.122 161.605,415.896 165.469,415.896 					"/>
					<polygon style="opacity:0.2;fill:#FFFFFF;" points="158.581,390.996 92.821,390.996 85.933,415.896 89.798,415.896 
						97.229,400.122 154.173,400.122 161.605,415.896 165.469,415.896 					"/>
					<polygon style="fill:#263238;" points="155.459,390.996 89.698,390.996 82.811,415.896 86.675,415.896 94.106,400.122 
						151.051,400.122 158.482,415.896 162.346,415.896 					"/>
					<polygon style="opacity:0.4;fill:#FFFFFF;" points="155.459,390.996 89.698,390.996 82.811,415.896 86.675,415.896 
						94.106,400.122 151.051,400.122 158.482,415.896 162.346,415.896 					"/>
				</g>
				<rect x="93.802" y="385.674" style="fill:#263238;" width="60.182" height="5.321"/>
				<rect x="93.802" y="385.674" style="opacity:0.2;fill:#FFFFFF;" width="60.182" height="5.321"/>
				<rect x="153.984" y="385.674" style="fill:#263238;" width="47.182" height="5.321"/>
				<rect x="153.984" y="385.674" style="opacity:0.1;fill:#FFFFFF;" width="47.182" height="5.321"/>
			</g>
		</g>
		<g>
			<g>
				<polygon style="fill:#CE7A63;" points="163.68,365.249 175.197,369.937 173.896,374.807 161.602,372.274 				"/>
				<g>
					<path style="fill:#263238;" d="M124.351,348.628c0,0,55.125-19.095,59.671-1.551c4.545,17.545-37.23,29.647-59.117,28.91
						C103.016,375.251,124.351,348.628,124.351,348.628z"/>
					<path style="opacity:0.3;" d="M124.351,348.628c0,0,55.125-19.095,59.671-1.551c4.545,17.545-37.23,29.647-59.117,28.91
						C103.016,375.251,124.351,348.628,124.351,348.628z"/>
				</g>
				<path style="opacity:0.7;" d="M165.331,350.406l-26.748,17.05l4.27,7.006c0,0-2.586,0.86-6.164-7.699l16.556-10.944
					c0,0-5.185-0.52-5.051-1.333c0.218-1.322,11.592-3.86,16.784-4.952C165.499,349.425,165.78,350.12,165.331,350.406z"/>
				<path style="opacity:0.7;" d="M137.609,366.704l4.637,7.863c-6.293,1.085-12.338,1.59-17.343,1.422
					c-2.332-0.079-4.17-0.453-5.599-1.056l-1.627-3.119l3.508-7.395L137.609,366.704z"/>
				<polygon style="fill:#CE7A63;" points="138.082,367.912 132.874,372.277 135.266,375.99 143.193,374.751 				"/>
				<polygon style="fill:#407BFF;" points="144.586,374.882 139.144,366.306 136.689,368.06 141.395,375.463 				"/>
				<path style="fill:#263238;" d="M104.975,366.891c-2.965-5.027-8.687-20.155,5.071-22.788
					c13.757-2.633,58.949,22.788,58.949,22.788l-2.104,6.615l-42.791-7.059c0,0,11.897,10.766-1.116,9.428
					C112.661,374.814,107.857,371.778,104.975,366.891z"/>
				<polygon style="fill:#407BFF;" points="167.881,365.249 165.206,373.886 167.881,374.258 170.292,366.797 				"/>
				<path style="fill:#407BFF;" d="M132.554,371.125l4.12,4.898c0.155,0.185,0.162,0.452,0.016,0.644l-3.24,4.237
					c-0.285,0.378-0.822,0.454-1.2,0.169c-0.049-0.037-0.093-0.078-0.133-0.124c-1.455-1.792-2.679-3.443-4.531-5.639
					c-2.183-2.594-1.94-1.674-4.549-4.688c-1.57-1.818,0.236-3.911,0.994-3.218c3.449,3.189,4.837,2.653,7.271,2.955
					C131.799,370.454,132.244,370.726,132.554,371.125z"/>
				<path style="opacity:0.3;" d="M132.554,371.125l4.12,4.898c0.155,0.185,0.162,0.452,0.016,0.644l-3.24,4.237
					c-0.285,0.378-0.822,0.454-1.2,0.169c-0.049-0.037-0.093-0.078-0.133-0.124c-1.455-1.792-2.679-3.443-4.531-5.639
					c-2.183-2.594-1.94-1.674-4.549-4.688c-1.57-1.818,0.236-3.911,0.994-3.218c3.449,3.189,4.837,2.653,7.271,2.955
					C131.799,370.454,132.244,370.726,132.554,371.125z"/>
				<path style="fill:#407BFF;" d="M174.266,369.319l-2.01,6.093c-0.076,0.23,0.018,0.481,0.225,0.605l4.593,2.737
					c0.406,0.246,0.934,0.116,1.18-0.289c0.032-0.052,0.057-0.107,0.077-0.165c0.687-2.209,1.211-4.202,2.117-6.935
					c1.066-3.226,1.182-2.28,2.488-6.056c0.784-2.276-1.676-3.551-2.123-2.625c-2.022,4.252-3.514,4.27-5.666,5.457
					C174.718,368.412,174.405,368.831,174.266,369.319z"/>
				<path style="opacity:0.3;" d="M174.266,369.319l-2.01,6.093c-0.076,0.23,0.018,0.481,0.225,0.605l4.593,2.737
					c0.406,0.246,0.934,0.116,1.18-0.289c0.032-0.052,0.057-0.107,0.077-0.165c0.687-2.209,1.211-4.202,2.117-6.935
					c1.066-3.226,1.182-2.28,2.488-6.056c0.784-2.276-1.676-3.551-2.123-2.625c-2.022,4.252-3.514,4.27-5.666,5.457
					C174.718,368.412,174.405,368.831,174.266,369.319z"/>
			</g>
			<path style="fill:#CE7A63;" d="M141.499,311.924c0,0,3.637,17.898,6.088,20.866c2.452,2.969,13.137,10.953,13.137,10.953
				l6.349-1.333l4.551,3.799l-2.975,2.348l-3.523-1.325c0,0-2.534,0.504-5.817,0.504c-3.283,0-16.609-7.841-19.251-12.244
				c-2.642-4.403-6.34-20.959-6.34-20.959L141.499,311.924z"/>
			<path style="fill:#407BFF;" d="M133.614,317.159c0,0-4.613-13.965,1.465-18.688c6.078-4.723,8.928,16.101,8.928,16.101
				L133.614,317.159z"/>
			<polygon style="fill:#407BFF;" points="132.371,315.962 133.302,318.356 144.943,315.363 144.477,312.969 			"/>
			<g>
				<path style="fill:#407BFF;" d="M102.016,350.841c0,0-7.509-22.766,2.465-52.37c0,0,12.943-6.023,31.4-1.605
					c2.117,0.507,3.4,2.648,2.857,4.756c-1.847,7.179-4.702,24.298,2.192,45.935C140.932,347.557,123.747,350.416,102.016,350.841z"
					/>
				<path style="opacity:0.8;fill:#FFFFFF;" d="M102.016,350.841c0,0-7.509-22.766,2.465-52.37c0,0,12.943-6.023,31.4-1.605
					c2.117,0.507,3.4,2.648,2.857,4.756c-1.847,7.179-4.702,24.298,2.192,45.935C140.932,347.557,123.747,350.416,102.016,350.841z"
					/>
				<path style="fill:#263238;" d="M123.054,299.708c0,0,2.333,2.583,4.375,0l1.125-0.167c0,0-0.083,2.75-1.583,3.667
					c0,0,3.037,13.446,5.144,33.327l-2.047,1.439l-2.483-1.439c0,0,0.612-8.668-2.137-33.119c0,0-3.018-0.958-3.935-3.875
					L123.054,299.708z"/>
			</g>
			<path style="fill:#CE7A63;" d="M119.198,295.384l6.249,5.412l3.629-3.214c-1.372-1.022-0.996-3.327-0.23-5.816l-8.862-6.996
				C120.433,288.056,120.773,292.565,119.198,295.384z"/>
			<path style="fill:#CE7A63;" d="M111.167,307.397c0,0,3.987,19.621,6.675,22.876c2.688,3.254,14.402,12.007,14.402,12.007
				l6.961-1.461l4.99,4.164l-3.262,2.574l-3.862-1.452c0,0-2.778,0.552-6.377,0.552c-3.599,0-18.208-8.596-21.105-13.423
				c-2.896-4.827-6.951-22.977-6.951-22.977L111.167,307.397z"/>
			<g>
				<path style="fill:#407BFF;" d="M116.893,295.52l2.481-1.439l6.073,6.716c0,0-3.339-1.364-4.277-0.812
					c-0.847,0.498-0.256,2.649-1.238,2.666C117.747,302.688,116.893,295.52,116.893,295.52z"/>
				<path style="fill:#407BFF;" d="M125.447,300.796l3.168-6.253l2.589,1.398c0,0,2.409,6.069,0.568,6.709
					c-1.12,0.389-1.549-2.449-2.661-2.86C128.22,299.461,125.447,300.796,125.447,300.796z"/>
			</g>
			<path style="fill:#407BFF;" d="M103.016,317.159c0,0-4.613-13.965,1.465-18.688c6.078-4.723,8.928,16.101,8.928,16.101
				L103.016,317.159z"/>
			<polygon style="fill:#407BFF;" points="101.773,315.962 102.704,318.356 114.344,315.363 113.879,312.969 			"/>
			<path style="opacity:0.1;" d="M120.129,285.934c-0.046-0.4-0.095-0.791-0.146-1.164l8.862,6.996
				c-0.329,1.067-0.575,2.094-0.655,3.009C122.837,294.821,120.81,288.905,120.129,285.934z"/>
			<path style="fill:#CE7A63;" d="M121.654,274.561c-1.845,6.249-2.764,8.883-0.811,13.093c2.931,6.408,11.011,7.307,14.684,1.734
				c3.285-5.022,5.808-14.391,0.673-19.004c-3.628-3.306-9.25-3.044-12.556,0.584C122.709,271.994,122.028,273.224,121.654,274.561z
				"/>
			<path style="fill:#263238;" d="M129.158,281.912c-0.176,0.499-0.062,0.995,0.266,1.116c0.327,0.121,0.737-0.189,0.913-0.688
				c0.176-0.499,0.068-0.994-0.259-1.115C129.75,281.104,129.34,281.414,129.158,281.912z"/>
			<path style="fill:#263238;" d="M134.788,283.955c-0.183,0.498-0.063,1.001,0.259,1.116c0.322,0.114,0.737-0.189,0.92-0.687
				c0.183-0.498,0.062-0.995-0.259-1.115C135.387,283.148,134.971,283.457,134.788,283.955z"/>
			<path style="fill:#BA4D3C;" d="M132.267,283.147c0.032,1.296,0.24,2.581,0.618,3.821c-0.646,0.182-1.339,0.069-1.894-0.309
				L132.267,283.147z"/>
			<path style="fill:#263238;" d="M128.499,277.51c0.064,0.119,0.197,0.185,0.331,0.162c1.431-0.216,2.736,1.116,2.745,1.128
				c0.119,0.125,0.317,0.129,0.442,0.01c0.125-0.119,0.13-0.317,0.011-0.442c-0.077-0.038-1.542-1.581-3.288-1.32
				c-0.169,0.028-0.285,0.186-0.262,0.356C128.477,277.441,128.484,277.477,128.499,277.51z"/>
			<path style="fill:#263238;" d="M137.943,281.542c0.106,0.035,0.222,0.013,0.308-0.058c0.127-0.113,0.142-0.307,0.034-0.438
				c-0.63-0.789-1.605-1.221-2.613-1.159c-0.172,0.021-0.295,0.177-0.274,0.349c0.021,0.172,0.177,0.295,0.349,0.274
				c0.797-0.034,1.562,0.316,2.056,0.942C137.843,281.493,137.89,281.523,137.943,281.542z"/>
			<path style="fill:#263238;" d="M120.437,278.206c0,0,2.344-0.055,2.016-2.731c0,0,3.878-0.109,4.042-2.95
				c0,0,3.387,3.004,4.589,0.655c0,0,4.152,3.715,4.698,1.257c0,0,4.316,5.353,4.097,2.076c0,0,4.862-0.492,0.492-4.698
				c0,0,3.988-3.496-2.458-4.916c0,0,0.564-4.145-3.975-2.321c0,0-1.051-4.506-4.984-1.884c0,0-2.125-3.168-4.449,1.092
				c0,0-3.429-1.964-4.521,2.461c0,0-6.206,0.755-3.646,4.831c0,0,1.915,13.692,3.646,13.692
				C121.161,284.77,120.437,278.206,120.437,278.206z"/>
			<path style="fill:#263238;" d="M129.237,288.621c0.22,0.064,0.445,0.11,0.673,0.136c0.073,0.012,0.143-0.037,0.155-0.11
				c0-0.002,0-0.003,0.001-0.005c0.005-0.076-0.051-0.141-0.126-0.15c-1.167-0.125-2.205-0.796-2.798-1.808
				c-0.033-0.068-0.115-0.096-0.183-0.063c-0.068,0.033-0.096,0.115-0.063,0.183C127.399,287.7,128.243,288.356,129.237,288.621z"/>
			<g>
				<g>
					<path style="fill:#263238;" d="M170.508,349.805h-24.804c-1.169,0-2.116-0.948-2.116-2.116l0,0h29.037l0,0
						C172.624,348.857,171.677,349.805,170.508,349.805z"/>
					<path style="opacity:0.2;fill:#FFFFFF;" d="M170.508,349.805h-24.804c-1.169,0-2.116-0.948-2.116-2.116l0,0h29.037l0,0
						C172.624,348.857,171.677,349.805,170.508,349.805z"/>
				</g>
				<path style="fill:#263238;" d="M152.249,349.805H134.23c-1.169,0-2.116-0.948-2.116-2.116l0,0h22.251l0,0
					C154.365,348.857,153.418,349.805,152.249,349.805z"/>
				<path style="opacity:0.5;fill:#FFFFFF;" d="M152.249,349.805H134.23c-1.169,0-2.116-0.948-2.116-2.116l0,0h22.251l0,0
					C154.365,348.857,153.418,349.805,152.249,349.805z"/>
				<g>
					<path style="fill:#263238;" d="M170.683,349.158h-16.326c-0.345,0-0.587-0.341-0.473-0.667l7.262-20.745
						c0.2-0.572,0.739-0.954,1.345-0.954h16.327c0.345,0,0.587,0.341,0.473,0.667l-7.262,20.745
						C171.828,348.775,171.289,349.158,170.683,349.158z"/>
					<path style="opacity:0.5;fill:#FFFFFF;" d="M170.683,349.158h-16.326c-0.345,0-0.587-0.341-0.473-0.667l7.262-20.745
						c0.2-0.572,0.739-0.954,1.345-0.954h16.327c0.345,0,0.587,0.341,0.473,0.667l-7.262,20.745
						C171.828,348.775,171.289,349.158,170.683,349.158z"/>
				</g>
				<g>
					<path style="fill:#263238;" d="M171.322,349.158h-16.327c-0.345,0-0.587-0.341-0.473-0.667l7.262-20.745
						c0.2-0.572,0.74-0.954,1.345-0.954h16.326c0.345,0,0.587,0.341,0.473,0.667l-7.262,20.745
						C172.467,348.775,171.928,349.158,171.322,349.158z"/>
					<path style="opacity:0.7;fill:#FFFFFF;" d="M171.322,349.158h-16.327c-0.345,0-0.587-0.341-0.473-0.667l7.262-20.745
						c0.2-0.572,0.74-0.954,1.345-0.954h16.326c0.345,0,0.587,0.341,0.473,0.667l-7.262,20.745
						C172.467,348.775,171.928,349.158,171.322,349.158z"/>
				</g>
				<path style="fill:#FFFFFF;" d="M168.608,337.975c-0.169,0.795-0.719,1.439-1.228,1.439c-0.509,0-0.785-0.644-0.616-1.439
					c0.169-0.795,0.719-1.439,1.228-1.439C168.501,336.535,168.777,337.18,168.608,337.975z"/>
			</g>
			<path style="opacity:0.3;fill:#FFFFFF;" d="M121.637,273.166c0,0-1.25,0.626-2.125,0c-0.875-0.626,0.241-2.374,0.241-2.374
				c-2.217,1.292-3.416,0.286-3.416,0.286s1.915,13.692,3.646,13.692c1.178,0,0.454-6.564,0.454-6.564s2.344-0.055,2.016-2.731
				C120.353,275.074,121.637,273.166,121.637,273.166z"/>
			<g>
				<path style="fill:#407BFF;" d="M138.324,282.23c-0.239-0.722-0.718-1.247-1.35-1.478c-1.226-0.448-2.663,0.372-3.312,1.837
					l-1.199-0.486c0.126-0.628,0.077-1.271-0.164-1.853c-0.306-0.742-0.873-1.296-1.596-1.561c-1.276-0.467-2.699,0.112-3.451,1.305
					l-1.535-0.619l-4.083-2.261l-0.242,0.438l4.111,2.274l1.521,0.615c-0.028,0.064-0.065,0.121-0.089,0.188
					c-0.286,0.78-0.275,1.616,0.03,2.355c0.306,0.742,0.873,1.296,1.596,1.561c0.299,0.11,0.61,0.164,0.922,0.164
					c0.442,0,0.886-0.109,1.304-0.325c0.71-0.367,1.258-0.999,1.543-1.778c0.002-0.005,0.002-0.01,0.004-0.015l1.156,0.468
					c-0.209,0.705-0.221,1.43-0.009,2.07c0.239,0.722,0.718,1.247,1.35,1.478c0.229,0.084,0.468,0.125,0.71,0.125
					c0.426,0,0.863-0.128,1.276-0.382c0.64-0.391,1.148-1.034,1.433-1.811C138.532,283.762,138.56,282.942,138.324,282.23z
					 M130.67,284.161c-0.65,0.336-1.369,0.388-2.025,0.148c-0.656-0.24-1.171-0.745-1.451-1.422c-0.281-0.68-0.29-1.452-0.026-2.173
					c0.435-1.186,1.51-1.938,2.618-1.938c0.278,0,0.559,0.047,0.832,0.147c0.656,0.24,1.171,0.745,1.451,1.422
					c0.281,0.68,0.29,1.452,0.026,2.173C131.83,283.241,131.324,283.823,130.67,284.161z M138.013,284.452
					c-0.266,0.724-0.737,1.323-1.329,1.685c-0.582,0.357-1.209,0.439-1.769,0.235c-0.559-0.205-0.984-0.674-1.199-1.322
					c-0.218-0.658-0.192-1.419,0.073-2.143c0.45-1.227,1.478-2.028,2.478-2.028c0.21,0,0.418,0.035,0.62,0.109
					c0.559,0.204,0.984,0.674,1.199,1.322C138.304,282.967,138.279,283.728,138.013,284.452z"/>
				<path style="opacity:0.5;fill:#FFFFFF;" d="M138.324,282.23c-0.239-0.722-0.718-1.247-1.35-1.478
					c-1.226-0.448-2.663,0.372-3.312,1.837l-1.199-0.486c0.126-0.628,0.077-1.271-0.164-1.853c-0.306-0.742-0.873-1.296-1.596-1.561
					c-1.276-0.467-2.699,0.112-3.451,1.305l-1.535-0.619l-4.083-2.261l-0.242,0.438l4.111,2.274l1.521,0.615
					c-0.028,0.064-0.065,0.121-0.089,0.188c-0.286,0.78-0.275,1.616,0.03,2.355c0.306,0.742,0.873,1.296,1.596,1.561
					c0.299,0.11,0.61,0.164,0.922,0.164c0.442,0,0.886-0.109,1.304-0.325c0.71-0.367,1.258-0.999,1.543-1.778
					c0.002-0.005,0.002-0.01,0.004-0.015l1.156,0.468c-0.209,0.705-0.221,1.43-0.009,2.07c0.239,0.722,0.718,1.247,1.35,1.478
					c0.229,0.084,0.468,0.125,0.71,0.125c0.426,0,0.863-0.128,1.276-0.382c0.64-0.391,1.148-1.034,1.433-1.811
					C138.532,283.762,138.56,282.942,138.324,282.23z M130.67,284.161c-0.65,0.336-1.369,0.388-2.025,0.148
					c-0.656-0.24-1.171-0.745-1.451-1.422c-0.281-0.68-0.29-1.452-0.026-2.173c0.435-1.186,1.51-1.938,2.618-1.938
					c0.278,0,0.559,0.047,0.832,0.147c0.656,0.24,1.171,0.745,1.451,1.422c0.281,0.68,0.29,1.452,0.026,2.173
					C131.83,283.241,131.324,283.823,130.67,284.161z M138.013,284.452c-0.266,0.724-0.737,1.323-1.329,1.685
					c-0.582,0.357-1.209,0.439-1.769,0.235c-0.559-0.205-0.984-0.674-1.199-1.322c-0.218-0.658-0.192-1.419,0.073-2.143
					c0.45-1.227,1.478-2.028,2.478-2.028c0.21,0,0.418,0.035,0.62,0.109c0.559,0.204,0.984,0.674,1.199,1.322
					C138.304,282.967,138.279,283.728,138.013,284.452z"/>
			</g>
			<path style="fill:#CE7A63;" d="M118.299,278.848c0.038,1.261,0.576,2.455,1.494,3.32c1.219,1.14,2.61,0.23,2.895-1.324
				c0.265-1.398-0.043-3.674-1.576-4.221c-1.12-0.377-2.334,0.226-2.711,1.346C118.307,278.252,118.272,278.551,118.299,278.848z"/>
		</g>
	</g>
</g>
</svg>
